<svg xmlns="http://www.w3.org/2000/svg" xmlns:xlink="http://www.w3.org/1999/xlink" width="80" zoomAndPan="magnify" viewBox="0 0 60 60" height="80" preserveAspectRatio="xMidYMid meet" version="1.0"><defs><clipPath id="31a31e03cc"><path d="M 30 0 C 13.429688 0 0 13.429688 0 30 C 0 46.570312 13.429688 60 30 60 C 46.570312 60 60 46.570312 60 30 C 60 13.429688 46.570312 0 30 0 Z M 30 0 " clip-rule="nonzero"/></clipPath><clipPath id="1621d884ff"><path d="M 0 0 L 60 0 L 60 60 L 0 60 Z M 0 0 " clip-rule="nonzero"/></clipPath><clipPath id="e0facd4b31"><path d="M 30 0 C 13.429688 0 0 13.429688 0 30 C 0 46.570312 13.429688 60 30 60 C 46.570312 60 60 46.570312 60 30 C 60 13.429688 46.570312 0 30 0 Z M 30 0 " clip-rule="nonzero"/></clipPath><clipPath id="e289c6e4e9"><rect x="0" width="60" y="0" height="60"/></clipPath><clipPath id="dd4703c824"><path d="M 1.472656 1.472656 L 58.527344 1.472656 L 58.527344 58.527344 L 1.472656 58.527344 Z M 1.472656 1.472656 " clip-rule="nonzero"/></clipPath><clipPath id="f3ae1f21fb"><path d="M 30 1.472656 C 14.242188 1.472656 1.472656 14.242188 1.472656 30 C 1.472656 45.757812 14.242188 58.527344 30 58.527344 C 45.757812 58.527344 58.527344 45.757812 58.527344 30 C 58.527344 14.242188 45.757812 1.472656 30 1.472656 Z M 30 1.472656 " clip-rule="nonzero"/></clipPath><clipPath id="ce978456c6"><path d="M 0.472656 0.472656 L 57.527344 0.472656 L 57.527344 57.527344 L 0.472656 57.527344 Z M 0.472656 0.472656 " clip-rule="nonzero"/></clipPath><clipPath id="e05a2d8878"><path d="M 29 0.472656 C 13.242188 0.472656 0.472656 13.242188 0.472656 29 C 0.472656 44.757812 13.242188 57.527344 29 57.527344 C 44.757812 57.527344 57.527344 44.757812 57.527344 29 C 57.527344 13.242188 44.757812 0.472656 29 0.472656 Z M 29 0.472656 " clip-rule="nonzero"/></clipPath><clipPath id="099aaad97e"><rect x="0" width="58" y="0" height="58"/></clipPath><clipPath id="4b3683d4aa"><path d="M 6.792969 14.398438 L 53.292969 14.398438 L 53.292969 52.648438 L 6.792969 52.648438 Z M 6.792969 14.398438 " clip-rule="nonzero"/></clipPath><clipPath id="67f3ee103c"><path d="M 6.792969 15.496094 L 51.792969 15.496094 L 51.792969 52.996094 L 6.792969 52.996094 Z M 6.792969 15.496094 " clip-rule="nonzero"/></clipPath></defs><g clip-path="url(#31a31e03cc)"><g transform="matrix(1, 0, 0, 1, 0, -0.000000000000001479)"><g clip-path="url(#e289c6e4e9)"><g clip-path="url(#1621d884ff)"><g clip-path="url(#e0facd4b31)"><rect x="-13.2" width="86.4" fill="#ff3131" height="86.4" y="-13.2" fill-opacity="1"/></g></g></g></g></g><g clip-path="url(#dd4703c824)"><g clip-path="url(#f3ae1f21fb)"><g transform="matrix(1, 0, 0, 1, 1, 1)"><g clip-path="url(#099aaad97e)"><g clip-path="url(#ce978456c6)"><g clip-path="url(#e05a2d8878)"><path fill="#000000" d="M 0.472656 0.472656 L 57.527344 0.472656 L 57.527344 57.527344 L 0.472656 57.527344 Z M 0.472656 0.472656 " fill-opacity="1" fill-rule="nonzero"/></g></g></g></g></g></g><g clip-path="url(#4b3683d4aa)"><path fill="#ff0000" d="M 29.683594 25.726562 L 29.683594 49.964844 L 33.605469 47.46875 L 33.605469 28.230469 L 35.148438 28.230469 L 35.148438 48.320312 L 28.140625 52.777344 L 28.140625 24.179688 L 48.296875 24.179688 L 50.507812 20.394531 L 28.910156 20.394531 L 28.910156 18.847656 L 53.203125 18.847656 L 49.183594 25.726562 Z M 12.332031 15.957031 L 46.023438 15.957031 L 44.324219 14.414062 L 11.457031 14.414062 L 6.792969 22.25 L 22.476562 22.25 L 22.476562 48.796875 L 24.019531 50.351562 L 24.019531 20.703125 L 9.507812 20.703125 Z M 12.332031 15.957031 " fill-opacity="1" fill-rule="nonzero"/></g><g clip-path="url(#67f3ee103c)"><path fill="#ffffff" d="M 29.039062 26.496094 L 29.039062 50.050781 L 32.847656 47.625 L 32.847656 28.929688 L 34.347656 28.929688 L 34.347656 48.453125 L 27.539062 52.785156 L 27.539062 24.996094 L 47.121094 24.996094 L 49.269531 21.316406 L 28.285156 21.316406 L 28.285156 19.816406 L 51.890625 19.816406 L 47.984375 26.496094 Z M 12.175781 17.003906 L 44.914062 17.003906 L 43.265625 15.503906 L 11.324219 15.503906 L 6.792969 23.121094 L 22.03125 23.121094 L 22.03125 48.914062 L 23.53125 50.429688 L 23.53125 21.617188 L 9.433594 21.617188 Z M 12.175781 17.003906 " fill-opacity="1" fill-rule="nonzero"/></g></svg>