<svg xmlns="http://www.w3.org/2000/svg" xmlns:xlink="http://www.w3.org/1999/xlink" width="160" zoomAndPan="magnify" viewBox="0 0 120 30.000001" height="40" preserveAspectRatio="xMidYMid meet" version="1.0"><defs><g/><clipPath id="52243d1448"><rect x="0" width="59" y="0" height="19"/></clipPath><clipPath id="4781b2abc7"><path d="M 25 13 L 105 13 L 105 29.03125 L 25 29.03125 Z M 25 13 " clip-rule="nonzero"/></clipPath><clipPath id="65632606a3"><rect x="0" width="80" y="0" height="17"/></clipPath><clipPath id="b89af14333"><path d="M 3.039062 1.164062 L 34.976562 1.164062 L 34.976562 28 L 3.039062 28 Z M 3.039062 1.164062 " clip-rule="nonzero"/></clipPath><clipPath id="9684a680d9"><path d="M 3.039062 1.921875 L 34.25 1.921875 L 34.25 28 L 3.039062 28 Z M 3.039062 1.921875 " clip-rule="nonzero"/></clipPath></defs><g transform="matrix(1, 0, 0, 1, 37, 0.000000000000005692)"><g clip-path="url(#52243d1448)"><g fill="#ffffff" fill-opacity="1"><g transform="translate(1.34533, 14.16606)"><g><path d="M 0.609375 -10.171875 C 0.804688 -10.160156 1.066406 -10.148438 1.390625 -10.140625 C 1.710938 -10.128906 2.035156 -10.125 2.359375 -10.125 C 2.804688 -10.125 3.234375 -10.128906 3.640625 -10.140625 C 4.054688 -10.148438 4.347656 -10.15625 4.515625 -10.15625 C 5.296875 -10.15625 5.941406 -10.039062 6.453125 -9.8125 C 6.960938 -9.59375 7.34375 -9.296875 7.59375 -8.921875 C 7.851562 -8.546875 7.984375 -8.125 7.984375 -7.65625 C 7.984375 -7.363281 7.925781 -7.054688 7.8125 -6.734375 C 7.695312 -6.410156 7.5 -6.101562 7.21875 -5.8125 C 6.9375 -5.53125 6.550781 -5.296875 6.0625 -5.109375 C 5.570312 -4.921875 4.953125 -4.828125 4.203125 -4.828125 L 2.828125 -4.828125 L 2.828125 -5.109375 L 4.0625 -5.109375 C 4.738281 -5.109375 5.253906 -5.21875 5.609375 -5.4375 C 5.972656 -5.65625 6.21875 -5.941406 6.34375 -6.296875 C 6.476562 -6.648438 6.546875 -7.050781 6.546875 -7.5 C 6.546875 -8.25 6.363281 -8.832031 6 -9.25 C 5.644531 -9.664062 5.035156 -9.875 4.171875 -9.875 C 3.722656 -9.875 3.429688 -9.789062 3.296875 -9.625 C 3.171875 -9.46875 3.109375 -9.140625 3.109375 -8.640625 L 3.109375 -1.515625 C 3.109375 -1.171875 3.132812 -0.910156 3.1875 -0.734375 C 3.25 -0.566406 3.363281 -0.453125 3.53125 -0.390625 C 3.695312 -0.335938 3.941406 -0.300781 4.265625 -0.28125 L 4.265625 0 C 4.046875 -0.0195312 3.769531 -0.03125 3.4375 -0.03125 C 3.101562 -0.0390625 2.769531 -0.046875 2.4375 -0.046875 C 2.0625 -0.046875 1.710938 -0.0390625 1.390625 -0.03125 C 1.066406 -0.03125 0.804688 -0.0195312 0.609375 0 L 0.609375 -0.28125 C 0.929688 -0.300781 1.175781 -0.335938 1.34375 -0.390625 C 1.507812 -0.453125 1.617188 -0.566406 1.671875 -0.734375 C 1.734375 -0.910156 1.765625 -1.171875 1.765625 -1.515625 L 1.765625 -8.640625 C 1.765625 -8.992188 1.734375 -9.253906 1.671875 -9.421875 C 1.617188 -9.585938 1.507812 -9.703125 1.34375 -9.765625 C 1.175781 -9.828125 0.929688 -9.863281 0.609375 -9.875 Z M 2.890625 -5.0625 C 3.398438 -5.050781 3.800781 -5.03125 4.09375 -5 C 4.394531 -4.976562 4.640625 -4.957031 4.828125 -4.9375 C 5.015625 -4.914062 5.195312 -4.894531 5.375 -4.875 C 6.007812 -4.757812 6.46875 -4.5625 6.75 -4.28125 C 7.039062 -4 7.25 -3.5625 7.375 -2.96875 L 7.734375 -1.5 C 7.835938 -1.082031 7.9375 -0.78125 8.03125 -0.59375 C 8.132812 -0.40625 8.289062 -0.316406 8.5 -0.328125 C 8.664062 -0.335938 8.800781 -0.390625 8.90625 -0.484375 C 9.019531 -0.578125 9.140625 -0.707031 9.265625 -0.875 L 9.484375 -0.71875 C 9.273438 -0.414062 9.0625 -0.1875 8.84375 -0.03125 C 8.632812 0.125 8.332031 0.203125 7.9375 0.203125 C 7.582031 0.203125 7.269531 0.0976562 7 -0.109375 C 6.738281 -0.328125 6.539062 -0.738281 6.40625 -1.34375 L 6.09375 -2.78125 C 6 -3.195312 5.894531 -3.554688 5.78125 -3.859375 C 5.675781 -4.160156 5.523438 -4.394531 5.328125 -4.5625 C 5.140625 -4.738281 4.851562 -4.828125 4.46875 -4.828125 L 2.921875 -4.828125 Z M 2.890625 -5.0625 "/></g></g></g><g fill="#ffffff" fill-opacity="1"><g transform="translate(10.649873, 14.16606)"><g><path d="M 4.265625 -10.171875 L 4.265625 -9.875 C 3.941406 -9.863281 3.695312 -9.828125 3.53125 -9.765625 C 3.363281 -9.703125 3.25 -9.585938 3.1875 -9.421875 C 3.132812 -9.253906 3.109375 -8.992188 3.109375 -8.640625 L 3.109375 -1.515625 C 3.109375 -1.171875 3.132812 -0.910156 3.1875 -0.734375 C 3.25 -0.566406 3.363281 -0.453125 3.53125 -0.390625 C 3.695312 -0.335938 3.941406 -0.300781 4.265625 -0.28125 L 4.265625 0 C 4.046875 -0.0195312 3.769531 -0.03125 3.4375 -0.03125 C 3.101562 -0.0390625 2.769531 -0.046875 2.4375 -0.046875 C 2.0625 -0.046875 1.710938 -0.0390625 1.390625 -0.03125 C 1.066406 -0.03125 0.804688 -0.0195312 0.609375 0 L 0.609375 -0.28125 C 0.929688 -0.300781 1.175781 -0.335938 1.34375 -0.390625 C 1.507812 -0.453125 1.617188 -0.566406 1.671875 -0.734375 C 1.734375 -0.910156 1.765625 -1.171875 1.765625 -1.515625 L 1.765625 -8.640625 C 1.765625 -8.992188 1.734375 -9.253906 1.671875 -9.421875 C 1.617188 -9.585938 1.507812 -9.703125 1.34375 -9.765625 C 1.175781 -9.828125 0.929688 -9.863281 0.609375 -9.875 L 0.609375 -10.171875 C 0.804688 -10.160156 1.066406 -10.148438 1.390625 -10.140625 C 1.710938 -10.128906 2.0625 -10.125 2.4375 -10.125 C 2.769531 -10.125 3.101562 -10.128906 3.4375 -10.140625 C 3.769531 -10.148438 4.046875 -10.160156 4.265625 -10.171875 Z M 4.265625 -10.171875 "/></g></g></g><g fill="#ffffff" fill-opacity="1"><g transform="translate(15.517528, 14.16606)"><g><path d="M 0.609375 -10.171875 C 0.804688 -10.160156 1.066406 -10.148438 1.390625 -10.140625 C 1.710938 -10.128906 2.035156 -10.125 2.359375 -10.125 C 2.804688 -10.125 3.234375 -10.128906 3.640625 -10.140625 C 4.054688 -10.148438 4.347656 -10.15625 4.515625 -10.15625 C 5.679688 -10.15625 6.550781 -9.890625 7.125 -9.359375 C 7.695312 -8.835938 7.984375 -8.160156 7.984375 -7.328125 C 7.984375 -6.984375 7.925781 -6.617188 7.8125 -6.234375 C 7.695312 -5.859375 7.5 -5.507812 7.21875 -5.1875 C 6.9375 -4.863281 6.550781 -4.601562 6.0625 -4.40625 C 5.570312 -4.207031 4.953125 -4.109375 4.203125 -4.109375 L 2.828125 -4.109375 L 2.828125 -4.390625 L 4.0625 -4.390625 C 4.738281 -4.390625 5.253906 -4.519531 5.609375 -4.78125 C 5.972656 -5.039062 6.21875 -5.378906 6.34375 -5.796875 C 6.476562 -6.222656 6.546875 -6.679688 6.546875 -7.171875 C 6.546875 -8.078125 6.363281 -8.753906 6 -9.203125 C 5.644531 -9.648438 5.035156 -9.875 4.171875 -9.875 C 3.722656 -9.875 3.429688 -9.789062 3.296875 -9.625 C 3.171875 -9.46875 3.109375 -9.140625 3.109375 -8.640625 L 3.109375 -1.515625 C 3.109375 -1.171875 3.140625 -0.910156 3.203125 -0.734375 C 3.273438 -0.566406 3.414062 -0.453125 3.625 -0.390625 C 3.84375 -0.335938 4.148438 -0.300781 4.546875 -0.28125 L 4.546875 0 C 4.296875 -0.0195312 3.976562 -0.03125 3.59375 -0.03125 C 3.21875 -0.0390625 2.832031 -0.046875 2.4375 -0.046875 C 2.0625 -0.046875 1.710938 -0.0390625 1.390625 -0.03125 C 1.066406 -0.03125 0.804688 -0.0195312 0.609375 0 L 0.609375 -0.28125 C 0.929688 -0.300781 1.175781 -0.335938 1.34375 -0.390625 C 1.507812 -0.453125 1.617188 -0.566406 1.671875 -0.734375 C 1.734375 -0.910156 1.765625 -1.171875 1.765625 -1.515625 L 1.765625 -8.640625 C 1.765625 -8.992188 1.734375 -9.253906 1.671875 -9.421875 C 1.617188 -9.585938 1.507812 -9.703125 1.34375 -9.765625 C 1.175781 -9.828125 0.929688 -9.863281 0.609375 -9.875 Z M 0.609375 -10.171875 "/></g></g></g><g fill="#ffffff" fill-opacity="1"><g transform="translate(23.917459, 14.16606)"><g><path d="M 4.640625 -10.234375 L 8.140625 -1.203125 C 8.285156 -0.835938 8.445312 -0.59375 8.625 -0.46875 C 8.8125 -0.351562 8.976562 -0.289062 9.125 -0.28125 L 9.125 0 C 8.9375 -0.0195312 8.703125 -0.03125 8.421875 -0.03125 C 8.148438 -0.0390625 7.875 -0.046875 7.59375 -0.046875 C 7.21875 -0.046875 6.867188 -0.0390625 6.546875 -0.03125 C 6.222656 -0.03125 5.960938 -0.0195312 5.765625 0 L 5.765625 -0.28125 C 6.242188 -0.300781 6.550781 -0.382812 6.6875 -0.53125 C 6.820312 -0.6875 6.796875 -1.007812 6.609375 -1.5 L 3.9375 -8.625 L 4.171875 -8.8125 L 1.671875 -2.328125 C 1.515625 -1.941406 1.421875 -1.617188 1.390625 -1.359375 C 1.359375 -1.097656 1.382812 -0.890625 1.46875 -0.734375 C 1.550781 -0.578125 1.691406 -0.460938 1.890625 -0.390625 C 2.085938 -0.328125 2.332031 -0.289062 2.625 -0.28125 L 2.625 0 C 2.351562 -0.0195312 2.070312 -0.03125 1.78125 -0.03125 C 1.488281 -0.0390625 1.21875 -0.046875 0.96875 -0.046875 C 0.738281 -0.046875 0.535156 -0.0390625 0.359375 -0.03125 C 0.191406 -0.03125 0.0390625 -0.0195312 -0.09375 0 L -0.09375 -0.28125 C 0.09375 -0.332031 0.285156 -0.445312 0.484375 -0.625 C 0.691406 -0.800781 0.875 -1.101562 1.03125 -1.53125 L 4.40625 -10.234375 C 4.445312 -10.234375 4.484375 -10.234375 4.515625 -10.234375 C 4.554688 -10.234375 4.597656 -10.234375 4.640625 -10.234375 Z M 6.390625 -4.140625 L 6.390625 -3.84375 L 2.109375 -3.84375 L 2.25 -4.140625 Z M 6.390625 -4.140625 "/></g></g></g><g fill="#ffffff" fill-opacity="1"><g transform="translate(32.96354, 14.16606)"><g><path d="M 8.5 -10.171875 C 8.457031 -9.804688 8.429688 -9.453125 8.421875 -9.109375 C 8.410156 -8.765625 8.40625 -8.503906 8.40625 -8.328125 C 8.40625 -8.097656 8.40625 -7.878906 8.40625 -7.671875 C 8.414062 -7.472656 8.425781 -7.300781 8.4375 -7.15625 L 8.109375 -7.15625 C 8.046875 -7.820312 7.957031 -8.347656 7.84375 -8.734375 C 7.726562 -9.117188 7.523438 -9.398438 7.234375 -9.578125 C 6.953125 -9.753906 6.507812 -9.84375 5.90625 -9.84375 L 5.125 -9.84375 L 5.125 -1.671875 C 5.125 -1.285156 5.160156 -0.992188 5.234375 -0.796875 C 5.304688 -0.609375 5.445312 -0.476562 5.65625 -0.40625 C 5.863281 -0.34375 6.171875 -0.300781 6.578125 -0.28125 L 6.578125 0 C 6.328125 -0.0195312 6.007812 -0.03125 5.625 -0.03125 C 5.238281 -0.0390625 4.851562 -0.046875 4.46875 -0.046875 C 4.03125 -0.046875 3.625 -0.0390625 3.25 -0.03125 C 2.875 -0.03125 2.570312 -0.0195312 2.34375 0 L 2.34375 -0.28125 C 2.738281 -0.300781 3.039062 -0.34375 3.25 -0.40625 C 3.46875 -0.476562 3.613281 -0.609375 3.6875 -0.796875 C 3.757812 -0.992188 3.796875 -1.285156 3.796875 -1.671875 L 3.796875 -9.84375 L 3.015625 -9.84375 C 2.421875 -9.84375 1.976562 -9.753906 1.6875 -9.578125 C 1.394531 -9.398438 1.191406 -9.117188 1.078125 -8.734375 C 0.960938 -8.347656 0.867188 -7.820312 0.796875 -7.15625 L 0.46875 -7.15625 C 0.488281 -7.300781 0.5 -7.472656 0.5 -7.671875 C 0.507812 -7.878906 0.515625 -8.097656 0.515625 -8.328125 C 0.515625 -8.503906 0.503906 -8.765625 0.484375 -9.109375 C 0.472656 -9.453125 0.453125 -9.804688 0.421875 -10.171875 C 0.816406 -10.160156 1.25 -10.148438 1.71875 -10.140625 C 2.195312 -10.128906 2.675781 -10.125 3.15625 -10.125 C 3.632812 -10.125 4.070312 -10.125 4.46875 -10.125 C 4.851562 -10.125 5.28125 -10.125 5.75 -10.125 C 6.226562 -10.125 6.707031 -10.128906 7.1875 -10.140625 C 7.664062 -10.148438 8.101562 -10.160156 8.5 -10.171875 Z M 8.5 -10.171875 "/></g></g></g><g fill="#ffffff" fill-opacity="1"><g transform="translate(41.880396, 14.16606)"><g><path d="M 6.609375 0 L 6.609375 -0.28125 C 6.929688 -0.300781 7.175781 -0.335938 7.34375 -0.390625 C 7.507812 -0.453125 7.617188 -0.566406 7.671875 -0.734375 C 7.734375 -0.910156 7.765625 -1.171875 7.765625 -1.515625 L 7.765625 -8.640625 C 7.765625 -8.992188 7.734375 -9.253906 7.671875 -9.421875 C 7.617188 -9.585938 7.507812 -9.703125 7.34375 -9.765625 C 7.175781 -9.828125 6.929688 -9.863281 6.609375 -9.875 L 6.609375 -10.171875 C 6.828125 -10.160156 7.101562 -10.148438 7.4375 -10.140625 C 7.769531 -10.128906 8.097656 -10.125 8.421875 -10.125 C 8.796875 -10.125 9.144531 -10.128906 9.46875 -10.140625 C 9.800781 -10.148438 10.066406 -10.160156 10.265625 -10.171875 L 10.265625 -9.875 C 9.941406 -9.863281 9.695312 -9.828125 9.53125 -9.765625 C 9.363281 -9.703125 9.25 -9.585938 9.1875 -9.421875 C 9.132812 -9.253906 9.109375 -8.992188 9.109375 -8.640625 L 9.109375 -1.515625 C 9.109375 -1.171875 9.132812 -0.910156 9.1875 -0.734375 C 9.25 -0.566406 9.363281 -0.453125 9.53125 -0.390625 C 9.695312 -0.335938 9.941406 -0.300781 10.265625 -0.28125 L 10.265625 0 C 10.066406 -0.0195312 9.800781 -0.03125 9.46875 -0.03125 C 9.144531 -0.0390625 8.796875 -0.046875 8.421875 -0.046875 C 8.097656 -0.046875 7.769531 -0.0390625 7.4375 -0.03125 C 7.101562 -0.03125 6.828125 -0.0195312 6.609375 0 Z M 0.609375 0 L 0.609375 -0.28125 C 0.929688 -0.300781 1.175781 -0.335938 1.34375 -0.390625 C 1.507812 -0.453125 1.617188 -0.566406 1.671875 -0.734375 C 1.734375 -0.910156 1.765625 -1.171875 1.765625 -1.515625 L 1.765625 -8.640625 C 1.765625 -8.992188 1.734375 -9.253906 1.671875 -9.421875 C 1.617188 -9.585938 1.507812 -9.703125 1.34375 -9.765625 C 1.175781 -9.828125 0.929688 -9.863281 0.609375 -9.875 L 0.609375 -10.171875 C 0.804688 -10.160156 1.066406 -10.148438 1.390625 -10.140625 C 1.710938 -10.128906 2.0625 -10.125 2.4375 -10.125 C 2.769531 -10.125 3.101562 -10.128906 3.4375 -10.140625 C 3.769531 -10.148438 4.046875 -10.160156 4.265625 -10.171875 L 4.265625 -9.875 C 3.941406 -9.863281 3.695312 -9.828125 3.53125 -9.765625 C 3.363281 -9.703125 3.25 -9.585938 3.1875 -9.421875 C 3.132812 -9.253906 3.109375 -8.992188 3.109375 -8.640625 L 3.109375 -1.515625 C 3.109375 -1.171875 3.132812 -0.910156 3.1875 -0.734375 C 3.25 -0.566406 3.363281 -0.453125 3.53125 -0.390625 C 3.695312 -0.335938 3.941406 -0.300781 4.265625 -0.28125 L 4.265625 0 C 4.046875 -0.0195312 3.769531 -0.03125 3.4375 -0.03125 C 3.101562 -0.0390625 2.769531 -0.046875 2.4375 -0.046875 C 2.0625 -0.046875 1.710938 -0.0390625 1.390625 -0.03125 C 1.066406 -0.03125 0.804688 -0.0195312 0.609375 0 Z M 2.59375 -4.96875 L 2.59375 -5.25 L 8.265625 -5.25 L 8.265625 -4.96875 Z M 2.59375 -4.96875 "/></g></g></g><g fill="#ffffff" fill-opacity="1"><g transform="translate(52.750056, 14.16606)"><g><path d="M 4.265625 -10.171875 L 4.265625 -9.875 C 3.941406 -9.863281 3.695312 -9.828125 3.53125 -9.765625 C 3.363281 -9.703125 3.25 -9.585938 3.1875 -9.421875 C 3.132812 -9.253906 3.109375 -8.992188 3.109375 -8.640625 L 3.109375 -1.515625 C 3.109375 -1.171875 3.132812 -0.910156 3.1875 -0.734375 C 3.25 -0.566406 3.363281 -0.453125 3.53125 -0.390625 C 3.695312 -0.335938 3.941406 -0.300781 4.265625 -0.28125 L 4.265625 0 C 4.046875 -0.0195312 3.769531 -0.03125 3.4375 -0.03125 C 3.101562 -0.0390625 2.769531 -0.046875 2.4375 -0.046875 C 2.0625 -0.046875 1.710938 -0.0390625 1.390625 -0.03125 C 1.066406 -0.03125 0.804688 -0.0195312 0.609375 0 L 0.609375 -0.28125 C 0.929688 -0.300781 1.175781 -0.335938 1.34375 -0.390625 C 1.507812 -0.453125 1.617188 -0.566406 1.671875 -0.734375 C 1.734375 -0.910156 1.765625 -1.171875 1.765625 -1.515625 L 1.765625 -8.640625 C 1.765625 -8.992188 1.734375 -9.253906 1.671875 -9.421875 C 1.617188 -9.585938 1.507812 -9.703125 1.34375 -9.765625 C 1.175781 -9.828125 0.929688 -9.863281 0.609375 -9.875 L 0.609375 -10.171875 C 0.804688 -10.160156 1.066406 -10.148438 1.390625 -10.140625 C 1.710938 -10.128906 2.0625 -10.125 2.4375 -10.125 C 2.769531 -10.125 3.101562 -10.128906 3.4375 -10.140625 C 3.769531 -10.148438 4.046875 -10.160156 4.265625 -10.171875 Z M 4.265625 -10.171875 "/></g></g></g></g></g><g clip-path="url(#4781b2abc7)"><g transform="matrix(1, 0, 0, 1, 25, 13)"><g clip-path="url(#65632606a3)"><g fill="#ff3131" fill-opacity="1"><g transform="translate(0.741144, 14.1287)"><g><path d="M 6.578125 -8.609375 C 6.546875 -8.328125 6.519531 -8.050781 6.5 -7.78125 C 6.488281 -7.507812 6.484375 -7.304688 6.484375 -7.171875 C 6.484375 -7.023438 6.488281 -6.882812 6.5 -6.75 C 6.507812 -6.613281 6.519531 -6.503906 6.53125 -6.421875 L 6.25 -6.421875 C 6.195312 -6.898438 6.125 -7.273438 6.03125 -7.546875 C 5.945312 -7.828125 5.796875 -8.023438 5.578125 -8.140625 C 5.367188 -8.265625 5.050781 -8.328125 4.625 -8.328125 L 3.609375 -8.328125 C 3.335938 -8.328125 3.128906 -8.300781 2.984375 -8.25 C 2.835938 -8.207031 2.738281 -8.113281 2.6875 -7.96875 C 2.644531 -7.832031 2.625 -7.613281 2.625 -7.3125 L 2.625 -1.28125 C 2.625 -0.988281 2.644531 -0.769531 2.6875 -0.625 C 2.738281 -0.476562 2.835938 -0.382812 2.984375 -0.34375 C 3.128906 -0.300781 3.335938 -0.28125 3.609375 -0.28125 L 4.5 -0.28125 C 5.007812 -0.28125 5.394531 -0.347656 5.65625 -0.484375 C 5.914062 -0.617188 6.101562 -0.84375 6.21875 -1.15625 C 6.34375 -1.46875 6.429688 -1.894531 6.484375 -2.4375 L 6.765625 -2.4375 C 6.742188 -2.21875 6.734375 -1.925781 6.734375 -1.5625 C 6.734375 -1.40625 6.738281 -1.179688 6.75 -0.890625 C 6.757812 -0.609375 6.78125 -0.3125 6.8125 0 C 6.40625 -0.0195312 5.941406 -0.03125 5.421875 -0.03125 C 4.898438 -0.03125 4.4375 -0.03125 4.03125 -0.03125 C 3.851562 -0.03125 3.625 -0.03125 3.34375 -0.03125 C 3.0625 -0.03125 2.757812 -0.03125 2.4375 -0.03125 C 2.113281 -0.03125 1.785156 -0.0234375 1.453125 -0.015625 C 1.117188 -0.015625 0.804688 -0.0078125 0.515625 0 L 0.515625 -0.25 C 0.785156 -0.257812 0.988281 -0.285156 1.125 -0.328125 C 1.269531 -0.378906 1.367188 -0.476562 1.421875 -0.625 C 1.472656 -0.769531 1.5 -0.988281 1.5 -1.28125 L 1.5 -7.3125 C 1.5 -7.613281 1.472656 -7.832031 1.421875 -7.96875 C 1.367188 -8.113281 1.269531 -8.210938 1.125 -8.265625 C 0.988281 -8.316406 0.785156 -8.347656 0.515625 -8.359375 L 0.515625 -8.609375 C 0.804688 -8.597656 1.117188 -8.585938 1.453125 -8.578125 C 1.785156 -8.578125 2.113281 -8.570312 2.4375 -8.5625 C 2.757812 -8.5625 3.0625 -8.5625 3.34375 -8.5625 C 3.625 -8.5625 3.851562 -8.5625 4.03125 -8.5625 C 4.40625 -8.5625 4.828125 -8.5625 5.296875 -8.5625 C 5.773438 -8.570312 6.203125 -8.585938 6.578125 -8.609375 Z M 4.484375 -4.453125 C 4.484375 -4.453125 4.484375 -4.410156 4.484375 -4.328125 C 4.484375 -4.242188 4.484375 -4.203125 4.484375 -4.203125 L 2.265625 -4.203125 C 2.265625 -4.203125 2.265625 -4.242188 2.265625 -4.328125 C 2.265625 -4.410156 2.265625 -4.453125 2.265625 -4.453125 Z M 4.84375 -6.046875 C 4.8125 -5.585938 4.796875 -5.234375 4.796875 -4.984375 C 4.796875 -4.742188 4.796875 -4.523438 4.796875 -4.328125 C 4.796875 -4.128906 4.800781 -3.90625 4.8125 -3.65625 C 4.820312 -3.414062 4.84375 -3.0625 4.875 -2.59375 L 4.59375 -2.59375 C 4.5625 -2.851562 4.519531 -3.109375 4.46875 -3.359375 C 4.425781 -3.609375 4.332031 -3.8125 4.1875 -3.96875 C 4.039062 -4.125 3.785156 -4.203125 3.421875 -4.203125 L 3.421875 -4.453125 C 3.691406 -4.453125 3.894531 -4.503906 4.03125 -4.609375 C 4.175781 -4.722656 4.28125 -4.863281 4.34375 -5.03125 C 4.414062 -5.195312 4.460938 -5.367188 4.484375 -5.546875 C 4.503906 -5.734375 4.53125 -5.898438 4.5625 -6.046875 Z M 4.84375 -6.046875 "/></g></g></g><g fill="#ffffff" fill-opacity="1"><g transform="translate(8.152211, 14.1287)"><g><path d="M 8.140625 -8.609375 L 8.140625 -8.359375 C 7.867188 -8.347656 7.660156 -8.304688 7.515625 -8.234375 C 7.378906 -8.160156 7.285156 -8.039062 7.234375 -7.875 C 7.179688 -7.71875 7.15625 -7.492188 7.15625 -7.203125 L 7.15625 0.0625 C 7.113281 0.0625 7.066406 0.0625 7.015625 0.0625 C 6.972656 0.0625 6.925781 0.0625 6.875 0.0625 L 1.78125 -7.828125 L 1.78125 -1.40625 C 1.78125 -1.113281 1.804688 -0.882812 1.859375 -0.71875 C 1.910156 -0.550781 2.015625 -0.429688 2.171875 -0.359375 C 2.328125 -0.296875 2.5625 -0.257812 2.875 -0.25 L 2.875 0 C 2.726562 -0.0195312 2.535156 -0.03125 2.296875 -0.03125 C 2.066406 -0.03125 1.847656 -0.03125 1.640625 -0.03125 C 1.441406 -0.03125 1.238281 -0.03125 1.03125 -0.03125 C 0.820312 -0.03125 0.648438 -0.0195312 0.515625 0 L 0.515625 -0.25 C 0.785156 -0.257812 0.988281 -0.296875 1.125 -0.359375 C 1.269531 -0.429688 1.367188 -0.550781 1.421875 -0.71875 C 1.472656 -0.882812 1.5 -1.113281 1.5 -1.40625 L 1.5 -7.3125 C 1.5 -7.613281 1.472656 -7.832031 1.421875 -7.96875 C 1.367188 -8.113281 1.269531 -8.210938 1.125 -8.265625 C 0.988281 -8.316406 0.785156 -8.347656 0.515625 -8.359375 L 0.515625 -8.609375 C 0.648438 -8.597656 0.820312 -8.585938 1.03125 -8.578125 C 1.238281 -8.566406 1.441406 -8.5625 1.640625 -8.5625 C 1.816406 -8.5625 1.984375 -8.566406 2.140625 -8.578125 C 2.304688 -8.585938 2.457031 -8.597656 2.59375 -8.609375 L 6.875 -2 L 6.875 -7.203125 C 6.875 -7.492188 6.847656 -7.71875 6.796875 -7.875 C 6.742188 -8.039062 6.640625 -8.160156 6.484375 -8.234375 C 6.328125 -8.304688 6.09375 -8.347656 5.78125 -8.359375 L 5.78125 -8.609375 C 5.925781 -8.597656 6.113281 -8.585938 6.34375 -8.578125 C 6.582031 -8.566406 6.804688 -8.5625 7.015625 -8.5625 C 7.222656 -8.5625 7.429688 -8.566406 7.640625 -8.578125 C 7.847656 -8.585938 8.015625 -8.597656 8.140625 -8.609375 Z M 8.140625 -8.609375 "/></g></g></g><g fill="#ffffff" fill-opacity="1"><g transform="translate(16.731957, 14.1287)"><g><path d="M 7.203125 -8.609375 C 7.160156 -8.296875 7.132812 -7.992188 7.125 -7.703125 C 7.113281 -7.421875 7.109375 -7.203125 7.109375 -7.046875 C 7.109375 -6.859375 7.113281 -6.675781 7.125 -6.5 C 7.132812 -6.332031 7.140625 -6.179688 7.140625 -6.046875 L 6.875 -6.046875 C 6.8125 -6.617188 6.726562 -7.066406 6.625 -7.390625 C 6.53125 -7.722656 6.363281 -7.960938 6.125 -8.109375 C 5.882812 -8.253906 5.507812 -8.328125 5 -8.328125 L 4.34375 -8.328125 L 4.34375 -1.40625 C 4.34375 -1.082031 4.367188 -0.835938 4.421875 -0.671875 C 4.484375 -0.515625 4.601562 -0.40625 4.78125 -0.34375 C 4.96875 -0.289062 5.226562 -0.257812 5.5625 -0.25 L 5.5625 0 C 5.351562 -0.0195312 5.085938 -0.03125 4.765625 -0.03125 C 4.441406 -0.03125 4.113281 -0.03125 3.78125 -0.03125 C 3.414062 -0.03125 3.070312 -0.03125 2.75 -0.03125 C 2.425781 -0.03125 2.171875 -0.0195312 1.984375 0 L 1.984375 -0.25 C 2.316406 -0.257812 2.570312 -0.289062 2.75 -0.34375 C 2.9375 -0.40625 3.054688 -0.515625 3.109375 -0.671875 C 3.171875 -0.835938 3.203125 -1.082031 3.203125 -1.40625 L 3.203125 -8.328125 L 2.546875 -8.328125 C 2.046875 -8.328125 1.671875 -8.253906 1.421875 -8.109375 C 1.179688 -7.960938 1.007812 -7.722656 0.90625 -7.390625 C 0.8125 -7.066406 0.738281 -6.617188 0.6875 -6.046875 L 0.40625 -6.046875 C 0.414062 -6.179688 0.421875 -6.332031 0.421875 -6.5 C 0.429688 -6.675781 0.4375 -6.859375 0.4375 -7.046875 C 0.4375 -7.203125 0.429688 -7.421875 0.421875 -7.703125 C 0.410156 -7.992188 0.390625 -8.296875 0.359375 -8.609375 C 0.691406 -8.597656 1.054688 -8.585938 1.453125 -8.578125 C 1.859375 -8.566406 2.265625 -8.5625 2.671875 -8.5625 C 3.078125 -8.5625 3.445312 -8.5625 3.78125 -8.5625 C 4.113281 -8.5625 4.476562 -8.5625 4.875 -8.5625 C 5.28125 -8.5625 5.6875 -8.566406 6.09375 -8.578125 C 6.5 -8.585938 6.867188 -8.597656 7.203125 -8.609375 Z M 7.203125 -8.609375 "/></g></g></g><g fill="#ffffff" fill-opacity="1"><g transform="translate(24.278724, 14.1287)"><g><path d="M 6.578125 -8.609375 C 6.546875 -8.328125 6.519531 -8.050781 6.5 -7.78125 C 6.488281 -7.507812 6.484375 -7.304688 6.484375 -7.171875 C 6.484375 -7.023438 6.488281 -6.882812 6.5 -6.75 C 6.507812 -6.613281 6.519531 -6.503906 6.53125 -6.421875 L 6.25 -6.421875 C 6.195312 -6.898438 6.125 -7.273438 6.03125 -7.546875 C 5.945312 -7.828125 5.796875 -8.023438 5.578125 -8.140625 C 5.367188 -8.265625 5.050781 -8.328125 4.625 -8.328125 L 3.609375 -8.328125 C 3.335938 -8.328125 3.128906 -8.300781 2.984375 -8.25 C 2.835938 -8.207031 2.738281 -8.113281 2.6875 -7.96875 C 2.644531 -7.832031 2.625 -7.613281 2.625 -7.3125 L 2.625 -1.28125 C 2.625 -0.988281 2.644531 -0.769531 2.6875 -0.625 C 2.738281 -0.476562 2.835938 -0.382812 2.984375 -0.34375 C 3.128906 -0.300781 3.335938 -0.28125 3.609375 -0.28125 L 4.5 -0.28125 C 5.007812 -0.28125 5.394531 -0.347656 5.65625 -0.484375 C 5.914062 -0.617188 6.101562 -0.84375 6.21875 -1.15625 C 6.34375 -1.46875 6.429688 -1.894531 6.484375 -2.4375 L 6.765625 -2.4375 C 6.742188 -2.21875 6.734375 -1.925781 6.734375 -1.5625 C 6.734375 -1.40625 6.738281 -1.179688 6.75 -0.890625 C 6.757812 -0.609375 6.78125 -0.3125 6.8125 0 C 6.40625 -0.0195312 5.941406 -0.03125 5.421875 -0.03125 C 4.898438 -0.03125 4.4375 -0.03125 4.03125 -0.03125 C 3.851562 -0.03125 3.625 -0.03125 3.34375 -0.03125 C 3.0625 -0.03125 2.757812 -0.03125 2.4375 -0.03125 C 2.113281 -0.03125 1.785156 -0.0234375 1.453125 -0.015625 C 1.117188 -0.015625 0.804688 -0.0078125 0.515625 0 L 0.515625 -0.25 C 0.785156 -0.257812 0.988281 -0.285156 1.125 -0.328125 C 1.269531 -0.378906 1.367188 -0.476562 1.421875 -0.625 C 1.472656 -0.769531 1.5 -0.988281 1.5 -1.28125 L 1.5 -7.3125 C 1.5 -7.613281 1.472656 -7.832031 1.421875 -7.96875 C 1.367188 -8.113281 1.269531 -8.210938 1.125 -8.265625 C 0.988281 -8.316406 0.785156 -8.347656 0.515625 -8.359375 L 0.515625 -8.609375 C 0.804688 -8.597656 1.117188 -8.585938 1.453125 -8.578125 C 1.785156 -8.578125 2.113281 -8.570312 2.4375 -8.5625 C 2.757812 -8.5625 3.0625 -8.5625 3.34375 -8.5625 C 3.625 -8.5625 3.851562 -8.5625 4.03125 -8.5625 C 4.40625 -8.5625 4.828125 -8.5625 5.296875 -8.5625 C 5.773438 -8.570312 6.203125 -8.585938 6.578125 -8.609375 Z M 4.484375 -4.453125 C 4.484375 -4.453125 4.484375 -4.410156 4.484375 -4.328125 C 4.484375 -4.242188 4.484375 -4.203125 4.484375 -4.203125 L 2.265625 -4.203125 C 2.265625 -4.203125 2.265625 -4.242188 2.265625 -4.328125 C 2.265625 -4.410156 2.265625 -4.453125 2.265625 -4.453125 Z M 4.84375 -6.046875 C 4.8125 -5.585938 4.796875 -5.234375 4.796875 -4.984375 C 4.796875 -4.742188 4.796875 -4.523438 4.796875 -4.328125 C 4.796875 -4.128906 4.800781 -3.90625 4.8125 -3.65625 C 4.820312 -3.414062 4.84375 -3.0625 4.875 -2.59375 L 4.59375 -2.59375 C 4.5625 -2.851562 4.519531 -3.109375 4.46875 -3.359375 C 4.425781 -3.609375 4.332031 -3.8125 4.1875 -3.96875 C 4.039062 -4.125 3.785156 -4.203125 3.421875 -4.203125 L 3.421875 -4.453125 C 3.691406 -4.453125 3.894531 -4.503906 4.03125 -4.609375 C 4.175781 -4.722656 4.28125 -4.863281 4.34375 -5.03125 C 4.414062 -5.195312 4.460938 -5.367188 4.484375 -5.546875 C 4.503906 -5.734375 4.53125 -5.898438 4.5625 -6.046875 Z M 4.84375 -6.046875 "/></g></g></g><g fill="#ffffff" fill-opacity="1"><g transform="translate(31.679661, 14.1287)"><g><path d="M 0.515625 -8.609375 C 0.679688 -8.597656 0.898438 -8.585938 1.171875 -8.578125 C 1.453125 -8.566406 1.726562 -8.5625 2 -8.5625 C 2.375 -8.5625 2.734375 -8.566406 3.078125 -8.578125 C 3.429688 -8.585938 3.679688 -8.59375 3.828125 -8.59375 C 4.484375 -8.59375 5.023438 -8.5 5.453125 -8.3125 C 5.890625 -8.125 6.21875 -7.867188 6.4375 -7.546875 C 6.65625 -7.234375 6.765625 -6.878906 6.765625 -6.484375 C 6.765625 -6.234375 6.710938 -5.96875 6.609375 -5.6875 C 6.515625 -5.414062 6.347656 -5.160156 6.109375 -4.921875 C 5.867188 -4.679688 5.539062 -4.476562 5.125 -4.3125 C 4.71875 -4.15625 4.195312 -4.078125 3.5625 -4.078125 L 2.390625 -4.078125 L 2.390625 -4.328125 L 3.4375 -4.328125 C 4.007812 -4.328125 4.445312 -4.414062 4.75 -4.59375 C 5.0625 -4.78125 5.269531 -5.023438 5.375 -5.328125 C 5.488281 -5.628906 5.546875 -5.96875 5.546875 -6.34375 C 5.546875 -6.988281 5.390625 -7.484375 5.078125 -7.828125 C 4.773438 -8.179688 4.257812 -8.359375 3.53125 -8.359375 C 3.15625 -8.359375 2.910156 -8.289062 2.796875 -8.15625 C 2.679688 -8.019531 2.625 -7.738281 2.625 -7.3125 L 2.625 -1.28125 C 2.625 -0.988281 2.644531 -0.769531 2.6875 -0.625 C 2.738281 -0.476562 2.835938 -0.378906 2.984375 -0.328125 C 3.128906 -0.285156 3.335938 -0.257812 3.609375 -0.25 L 3.609375 0 C 3.421875 -0.0195312 3.1875 -0.03125 2.90625 -0.03125 C 2.625 -0.03125 2.34375 -0.03125 2.0625 -0.03125 C 1.75 -0.03125 1.453125 -0.03125 1.171875 -0.03125 C 0.898438 -0.03125 0.679688 -0.0195312 0.515625 0 L 0.515625 -0.25 C 0.785156 -0.257812 0.988281 -0.285156 1.125 -0.328125 C 1.269531 -0.378906 1.367188 -0.476562 1.421875 -0.625 C 1.472656 -0.769531 1.5 -0.988281 1.5 -1.28125 L 1.5 -7.3125 C 1.5 -7.613281 1.472656 -7.832031 1.421875 -7.96875 C 1.367188 -8.113281 1.269531 -8.210938 1.125 -8.265625 C 0.988281 -8.316406 0.785156 -8.347656 0.515625 -8.359375 Z M 2.4375 -4.296875 C 2.875 -4.273438 3.21875 -4.253906 3.46875 -4.234375 C 3.726562 -4.210938 3.9375 -4.191406 4.09375 -4.171875 C 4.25 -4.160156 4.398438 -4.144531 4.546875 -4.125 C 5.085938 -4.03125 5.476562 -3.863281 5.71875 -3.625 C 5.957031 -3.382812 6.132812 -3.015625 6.25 -2.515625 L 6.546875 -1.28125 C 6.628906 -0.914062 6.710938 -0.65625 6.796875 -0.5 C 6.878906 -0.34375 7.015625 -0.269531 7.203125 -0.28125 C 7.335938 -0.289062 7.453125 -0.332031 7.546875 -0.40625 C 7.640625 -0.488281 7.738281 -0.597656 7.84375 -0.734375 L 8.015625 -0.609375 C 7.847656 -0.359375 7.671875 -0.164062 7.484375 -0.03125 C 7.304688 0.101562 7.050781 0.171875 6.71875 0.171875 C 6.414062 0.171875 6.148438 0.0820312 5.921875 -0.09375 C 5.703125 -0.269531 5.535156 -0.617188 5.421875 -1.140625 L 5.15625 -2.359375 C 5.082031 -2.703125 5 -3 4.90625 -3.25 C 4.8125 -3.507812 4.679688 -3.710938 4.515625 -3.859375 C 4.347656 -4.003906 4.101562 -4.078125 3.78125 -4.078125 L 2.46875 -4.078125 Z M 2.4375 -4.296875 "/></g></g></g><g fill="#ffffff" fill-opacity="1"><g transform="translate(39.554549, 14.1287)"><g><path d="M 0.515625 -8.609375 C 0.679688 -8.597656 0.898438 -8.585938 1.171875 -8.578125 C 1.453125 -8.566406 1.726562 -8.5625 2 -8.5625 C 2.375 -8.5625 2.734375 -8.566406 3.078125 -8.578125 C 3.429688 -8.585938 3.679688 -8.59375 3.828125 -8.59375 C 4.804688 -8.59375 5.539062 -8.367188 6.03125 -7.921875 C 6.519531 -7.472656 6.765625 -6.898438 6.765625 -6.203125 C 6.765625 -5.910156 6.710938 -5.601562 6.609375 -5.28125 C 6.515625 -4.957031 6.347656 -4.660156 6.109375 -4.390625 C 5.867188 -4.117188 5.539062 -3.898438 5.125 -3.734375 C 4.71875 -3.566406 4.195312 -3.484375 3.5625 -3.484375 L 2.390625 -3.484375 L 2.390625 -3.71875 L 3.4375 -3.71875 C 4.007812 -3.71875 4.445312 -3.828125 4.75 -4.046875 C 5.0625 -4.265625 5.269531 -4.550781 5.375 -4.90625 C 5.488281 -5.269531 5.546875 -5.65625 5.546875 -6.0625 C 5.546875 -6.832031 5.390625 -7.40625 5.078125 -7.78125 C 4.773438 -8.164062 4.257812 -8.359375 3.53125 -8.359375 C 3.15625 -8.359375 2.910156 -8.289062 2.796875 -8.15625 C 2.679688 -8.019531 2.625 -7.738281 2.625 -7.3125 L 2.625 -1.28125 C 2.625 -0.988281 2.65625 -0.769531 2.71875 -0.625 C 2.78125 -0.476562 2.898438 -0.378906 3.078125 -0.328125 C 3.253906 -0.285156 3.515625 -0.257812 3.859375 -0.25 L 3.859375 0 C 3.640625 -0.0195312 3.367188 -0.03125 3.046875 -0.03125 C 2.722656 -0.03125 2.394531 -0.03125 2.0625 -0.03125 C 1.75 -0.03125 1.453125 -0.03125 1.171875 -0.03125 C 0.898438 -0.03125 0.679688 -0.0195312 0.515625 0 L 0.515625 -0.25 C 0.785156 -0.257812 0.988281 -0.285156 1.125 -0.328125 C 1.269531 -0.378906 1.367188 -0.476562 1.421875 -0.625 C 1.472656 -0.769531 1.5 -0.988281 1.5 -1.28125 L 1.5 -7.3125 C 1.5 -7.613281 1.472656 -7.832031 1.421875 -7.96875 C 1.367188 -8.113281 1.269531 -8.210938 1.125 -8.265625 C 0.988281 -8.316406 0.785156 -8.347656 0.515625 -8.359375 Z M 0.515625 -8.609375 "/></g></g></g><g fill="#ffffff" fill-opacity="1"><g transform="translate(46.663824, 14.1287)"><g><path d="M 0.515625 -8.609375 C 0.679688 -8.597656 0.898438 -8.585938 1.171875 -8.578125 C 1.453125 -8.566406 1.726562 -8.5625 2 -8.5625 C 2.375 -8.5625 2.734375 -8.566406 3.078125 -8.578125 C 3.429688 -8.585938 3.679688 -8.59375 3.828125 -8.59375 C 4.484375 -8.59375 5.023438 -8.5 5.453125 -8.3125 C 5.890625 -8.125 6.21875 -7.867188 6.4375 -7.546875 C 6.65625 -7.234375 6.765625 -6.878906 6.765625 -6.484375 C 6.765625 -6.234375 6.710938 -5.96875 6.609375 -5.6875 C 6.515625 -5.414062 6.347656 -5.160156 6.109375 -4.921875 C 5.867188 -4.679688 5.539062 -4.476562 5.125 -4.3125 C 4.71875 -4.15625 4.195312 -4.078125 3.5625 -4.078125 L 2.390625 -4.078125 L 2.390625 -4.328125 L 3.4375 -4.328125 C 4.007812 -4.328125 4.445312 -4.414062 4.75 -4.59375 C 5.0625 -4.78125 5.269531 -5.023438 5.375 -5.328125 C 5.488281 -5.628906 5.546875 -5.96875 5.546875 -6.34375 C 5.546875 -6.988281 5.390625 -7.484375 5.078125 -7.828125 C 4.773438 -8.179688 4.257812 -8.359375 3.53125 -8.359375 C 3.15625 -8.359375 2.910156 -8.289062 2.796875 -8.15625 C 2.679688 -8.019531 2.625 -7.738281 2.625 -7.3125 L 2.625 -1.28125 C 2.625 -0.988281 2.644531 -0.769531 2.6875 -0.625 C 2.738281 -0.476562 2.835938 -0.378906 2.984375 -0.328125 C 3.128906 -0.285156 3.335938 -0.257812 3.609375 -0.25 L 3.609375 0 C 3.421875 -0.0195312 3.1875 -0.03125 2.90625 -0.03125 C 2.625 -0.03125 2.34375 -0.03125 2.0625 -0.03125 C 1.75 -0.03125 1.453125 -0.03125 1.171875 -0.03125 C 0.898438 -0.03125 0.679688 -0.0195312 0.515625 0 L 0.515625 -0.25 C 0.785156 -0.257812 0.988281 -0.285156 1.125 -0.328125 C 1.269531 -0.378906 1.367188 -0.476562 1.421875 -0.625 C 1.472656 -0.769531 1.5 -0.988281 1.5 -1.28125 L 1.5 -7.3125 C 1.5 -7.613281 1.472656 -7.832031 1.421875 -7.96875 C 1.367188 -8.113281 1.269531 -8.210938 1.125 -8.265625 C 0.988281 -8.316406 0.785156 -8.347656 0.515625 -8.359375 Z M 2.4375 -4.296875 C 2.875 -4.273438 3.21875 -4.253906 3.46875 -4.234375 C 3.726562 -4.210938 3.9375 -4.191406 4.09375 -4.171875 C 4.25 -4.160156 4.398438 -4.144531 4.546875 -4.125 C 5.085938 -4.03125 5.476562 -3.863281 5.71875 -3.625 C 5.957031 -3.382812 6.132812 -3.015625 6.25 -2.515625 L 6.546875 -1.28125 C 6.628906 -0.914062 6.710938 -0.65625 6.796875 -0.5 C 6.878906 -0.34375 7.015625 -0.269531 7.203125 -0.28125 C 7.335938 -0.289062 7.453125 -0.332031 7.546875 -0.40625 C 7.640625 -0.488281 7.738281 -0.597656 7.84375 -0.734375 L 8.015625 -0.609375 C 7.847656 -0.359375 7.671875 -0.164062 7.484375 -0.03125 C 7.304688 0.101562 7.050781 0.171875 6.71875 0.171875 C 6.414062 0.171875 6.148438 0.0820312 5.921875 -0.09375 C 5.703125 -0.269531 5.535156 -0.617188 5.421875 -1.140625 L 5.15625 -2.359375 C 5.082031 -2.703125 5 -3 4.90625 -3.25 C 4.8125 -3.507812 4.679688 -3.710938 4.515625 -3.859375 C 4.347656 -4.003906 4.101562 -4.078125 3.78125 -4.078125 L 2.46875 -4.078125 Z M 2.4375 -4.296875 "/></g></g></g><g fill="#ffffff" fill-opacity="1"><g transform="translate(54.538713, 14.1287)"><g><path d="M 3.609375 -8.609375 L 3.609375 -8.359375 C 3.335938 -8.347656 3.128906 -8.316406 2.984375 -8.265625 C 2.835938 -8.210938 2.738281 -8.113281 2.6875 -7.96875 C 2.644531 -7.832031 2.625 -7.613281 2.625 -7.3125 L 2.625 -1.28125 C 2.625 -0.988281 2.644531 -0.769531 2.6875 -0.625 C 2.738281 -0.476562 2.835938 -0.378906 2.984375 -0.328125 C 3.128906 -0.285156 3.335938 -0.257812 3.609375 -0.25 L 3.609375 0 C 3.421875 -0.0195312 3.1875 -0.03125 2.90625 -0.03125 C 2.625 -0.03125 2.34375 -0.03125 2.0625 -0.03125 C 1.75 -0.03125 1.453125 -0.03125 1.171875 -0.03125 C 0.898438 -0.03125 0.679688 -0.0195312 0.515625 0 L 0.515625 -0.25 C 0.785156 -0.257812 0.988281 -0.285156 1.125 -0.328125 C 1.269531 -0.378906 1.367188 -0.476562 1.421875 -0.625 C 1.472656 -0.769531 1.5 -0.988281 1.5 -1.28125 L 1.5 -7.3125 C 1.5 -7.613281 1.472656 -7.832031 1.421875 -7.96875 C 1.367188 -8.113281 1.269531 -8.210938 1.125 -8.265625 C 0.988281 -8.316406 0.785156 -8.347656 0.515625 -8.359375 L 0.515625 -8.609375 C 0.679688 -8.597656 0.898438 -8.585938 1.171875 -8.578125 C 1.453125 -8.566406 1.75 -8.5625 2.0625 -8.5625 C 2.34375 -8.5625 2.625 -8.566406 2.90625 -8.578125 C 3.1875 -8.585938 3.421875 -8.597656 3.609375 -8.609375 Z M 3.609375 -8.609375 "/></g></g></g><g fill="#ffffff" fill-opacity="1"><g transform="translate(58.658455, 14.1287)"><g><path d="M 3.109375 -8.734375 C 3.515625 -8.734375 3.820312 -8.6875 4.03125 -8.59375 C 4.25 -8.5 4.4375 -8.398438 4.59375 -8.296875 C 4.6875 -8.234375 4.765625 -8.1875 4.828125 -8.15625 C 4.890625 -8.132812 4.953125 -8.125 5.015625 -8.125 C 5.085938 -8.125 5.140625 -8.164062 5.171875 -8.25 C 5.210938 -8.34375 5.25 -8.476562 5.28125 -8.65625 L 5.5625 -8.65625 C 5.550781 -8.519531 5.535156 -8.351562 5.515625 -8.15625 C 5.503906 -7.96875 5.5 -7.71875 5.5 -7.40625 C 5.5 -7.09375 5.5 -6.679688 5.5 -6.171875 L 5.21875 -6.171875 C 5.1875 -6.566406 5.097656 -6.941406 4.953125 -7.296875 C 4.804688 -7.648438 4.59375 -7.941406 4.3125 -8.171875 C 4.039062 -8.398438 3.675781 -8.515625 3.21875 -8.515625 C 2.789062 -8.515625 2.4375 -8.382812 2.15625 -8.125 C 1.875 -7.863281 1.734375 -7.519531 1.734375 -7.09375 C 1.734375 -6.726562 1.828125 -6.421875 2.015625 -6.171875 C 2.203125 -5.929688 2.453125 -5.710938 2.765625 -5.515625 C 3.078125 -5.316406 3.414062 -5.101562 3.78125 -4.875 C 4.195312 -4.613281 4.566406 -4.351562 4.890625 -4.09375 C 5.222656 -3.84375 5.484375 -3.5625 5.671875 -3.25 C 5.867188 -2.945312 5.96875 -2.578125 5.96875 -2.140625 C 5.96875 -1.617188 5.847656 -1.1875 5.609375 -0.84375 C 5.378906 -0.507812 5.066406 -0.253906 4.671875 -0.078125 C 4.285156 0.0859375 3.859375 0.171875 3.390625 0.171875 C 2.960938 0.171875 2.625 0.117188 2.375 0.015625 C 2.125 -0.078125 1.90625 -0.175781 1.71875 -0.28125 C 1.539062 -0.394531 1.40625 -0.453125 1.3125 -0.453125 C 1.226562 -0.453125 1.164062 -0.40625 1.125 -0.3125 C 1.09375 -0.226562 1.066406 -0.0976562 1.046875 0.078125 L 0.765625 0.078125 C 0.785156 -0.0859375 0.796875 -0.285156 0.796875 -0.515625 C 0.796875 -0.742188 0.796875 -1.046875 0.796875 -1.421875 C 0.804688 -1.796875 0.8125 -2.265625 0.8125 -2.828125 L 1.09375 -2.828125 C 1.125 -2.347656 1.210938 -1.894531 1.359375 -1.46875 C 1.515625 -1.050781 1.75 -0.710938 2.0625 -0.453125 C 2.375 -0.203125 2.789062 -0.078125 3.3125 -0.078125 C 3.570312 -0.078125 3.820312 -0.128906 4.0625 -0.234375 C 4.300781 -0.347656 4.5 -0.523438 4.65625 -0.765625 C 4.8125 -1.003906 4.890625 -1.3125 4.890625 -1.6875 C 4.890625 -2.019531 4.804688 -2.304688 4.640625 -2.546875 C 4.484375 -2.796875 4.265625 -3.03125 3.984375 -3.25 C 3.703125 -3.46875 3.367188 -3.691406 2.984375 -3.921875 C 2.609375 -4.148438 2.253906 -4.382812 1.921875 -4.625 C 1.585938 -4.875 1.320312 -5.15625 1.125 -5.46875 C 0.925781 -5.789062 0.828125 -6.179688 0.828125 -6.640625 C 0.828125 -7.117188 0.929688 -7.515625 1.140625 -7.828125 C 1.359375 -8.140625 1.640625 -8.367188 1.984375 -8.515625 C 2.335938 -8.660156 2.710938 -8.734375 3.109375 -8.734375 Z M 3.109375 -8.734375 "/></g></g></g><g fill="#ffffff" fill-opacity="1"><g transform="translate(65.220868, 14.1287)"><g><path d="M 6.578125 -8.609375 C 6.546875 -8.328125 6.519531 -8.050781 6.5 -7.78125 C 6.488281 -7.507812 6.484375 -7.304688 6.484375 -7.171875 C 6.484375 -7.023438 6.488281 -6.882812 6.5 -6.75 C 6.507812 -6.613281 6.519531 -6.503906 6.53125 -6.421875 L 6.25 -6.421875 C 6.195312 -6.898438 6.125 -7.273438 6.03125 -7.546875 C 5.945312 -7.828125 5.796875 -8.023438 5.578125 -8.140625 C 5.367188 -8.265625 5.050781 -8.328125 4.625 -8.328125 L 3.609375 -8.328125 C 3.335938 -8.328125 3.128906 -8.300781 2.984375 -8.25 C 2.835938 -8.207031 2.738281 -8.113281 2.6875 -7.96875 C 2.644531 -7.832031 2.625 -7.613281 2.625 -7.3125 L 2.625 -1.28125 C 2.625 -0.988281 2.644531 -0.769531 2.6875 -0.625 C 2.738281 -0.476562 2.835938 -0.382812 2.984375 -0.34375 C 3.128906 -0.300781 3.335938 -0.28125 3.609375 -0.28125 L 4.5 -0.28125 C 5.007812 -0.28125 5.394531 -0.347656 5.65625 -0.484375 C 5.914062 -0.617188 6.101562 -0.84375 6.21875 -1.15625 C 6.34375 -1.46875 6.429688 -1.894531 6.484375 -2.4375 L 6.765625 -2.4375 C 6.742188 -2.21875 6.734375 -1.925781 6.734375 -1.5625 C 6.734375 -1.40625 6.738281 -1.179688 6.75 -0.890625 C 6.757812 -0.609375 6.78125 -0.3125 6.8125 0 C 6.40625 -0.0195312 5.941406 -0.03125 5.421875 -0.03125 C 4.898438 -0.03125 4.4375 -0.03125 4.03125 -0.03125 C 3.851562 -0.03125 3.625 -0.03125 3.34375 -0.03125 C 3.0625 -0.03125 2.757812 -0.03125 2.4375 -0.03125 C 2.113281 -0.03125 1.785156 -0.0234375 1.453125 -0.015625 C 1.117188 -0.015625 0.804688 -0.0078125 0.515625 0 L 0.515625 -0.25 C 0.785156 -0.257812 0.988281 -0.285156 1.125 -0.328125 C 1.269531 -0.378906 1.367188 -0.476562 1.421875 -0.625 C 1.472656 -0.769531 1.5 -0.988281 1.5 -1.28125 L 1.5 -7.3125 C 1.5 -7.613281 1.472656 -7.832031 1.421875 -7.96875 C 1.367188 -8.113281 1.269531 -8.210938 1.125 -8.265625 C 0.988281 -8.316406 0.785156 -8.347656 0.515625 -8.359375 L 0.515625 -8.609375 C 0.804688 -8.597656 1.117188 -8.585938 1.453125 -8.578125 C 1.785156 -8.578125 2.113281 -8.570312 2.4375 -8.5625 C 2.757812 -8.5625 3.0625 -8.5625 3.34375 -8.5625 C 3.625 -8.5625 3.851562 -8.5625 4.03125 -8.5625 C 4.40625 -8.5625 4.828125 -8.5625 5.296875 -8.5625 C 5.773438 -8.570312 6.203125 -8.585938 6.578125 -8.609375 Z M 4.484375 -4.453125 C 4.484375 -4.453125 4.484375 -4.410156 4.484375 -4.328125 C 4.484375 -4.242188 4.484375 -4.203125 4.484375 -4.203125 L 2.265625 -4.203125 C 2.265625 -4.203125 2.265625 -4.242188 2.265625 -4.328125 C 2.265625 -4.410156 2.265625 -4.453125 2.265625 -4.453125 Z M 4.84375 -6.046875 C 4.8125 -5.585938 4.796875 -5.234375 4.796875 -4.984375 C 4.796875 -4.742188 4.796875 -4.523438 4.796875 -4.328125 C 4.796875 -4.128906 4.800781 -3.90625 4.8125 -3.65625 C 4.820312 -3.414062 4.84375 -3.0625 4.875 -2.59375 L 4.59375 -2.59375 C 4.5625 -2.851562 4.519531 -3.109375 4.46875 -3.359375 C 4.425781 -3.609375 4.332031 -3.8125 4.1875 -3.96875 C 4.039062 -4.125 3.785156 -4.203125 3.421875 -4.203125 L 3.421875 -4.453125 C 3.691406 -4.453125 3.894531 -4.503906 4.03125 -4.609375 C 4.175781 -4.722656 4.28125 -4.863281 4.34375 -5.03125 C 4.414062 -5.195312 4.460938 -5.367188 4.484375 -5.546875 C 4.503906 -5.734375 4.53125 -5.898438 4.5625 -6.046875 Z M 4.84375 -6.046875 "/></g></g></g><g fill="#ffffff" fill-opacity="1"><g transform="translate(72.621804, 14.1287)"><g><path d="M 3.109375 -8.734375 C 3.515625 -8.734375 3.820312 -8.6875 4.03125 -8.59375 C 4.25 -8.5 4.4375 -8.398438 4.59375 -8.296875 C 4.6875 -8.234375 4.765625 -8.1875 4.828125 -8.15625 C 4.890625 -8.132812 4.953125 -8.125 5.015625 -8.125 C 5.085938 -8.125 5.140625 -8.164062 5.171875 -8.25 C 5.210938 -8.34375 5.25 -8.476562 5.28125 -8.65625 L 5.5625 -8.65625 C 5.550781 -8.519531 5.535156 -8.351562 5.515625 -8.15625 C 5.503906 -7.96875 5.5 -7.71875 5.5 -7.40625 C 5.5 -7.09375 5.5 -6.679688 5.5 -6.171875 L 5.21875 -6.171875 C 5.1875 -6.566406 5.097656 -6.941406 4.953125 -7.296875 C 4.804688 -7.648438 4.59375 -7.941406 4.3125 -8.171875 C 4.039062 -8.398438 3.675781 -8.515625 3.21875 -8.515625 C 2.789062 -8.515625 2.4375 -8.382812 2.15625 -8.125 C 1.875 -7.863281 1.734375 -7.519531 1.734375 -7.09375 C 1.734375 -6.726562 1.828125 -6.421875 2.015625 -6.171875 C 2.203125 -5.929688 2.453125 -5.710938 2.765625 -5.515625 C 3.078125 -5.316406 3.414062 -5.101562 3.78125 -4.875 C 4.195312 -4.613281 4.566406 -4.351562 4.890625 -4.09375 C 5.222656 -3.84375 5.484375 -3.5625 5.671875 -3.25 C 5.867188 -2.945312 5.96875 -2.578125 5.96875 -2.140625 C 5.96875 -1.617188 5.847656 -1.1875 5.609375 -0.84375 C 5.378906 -0.507812 5.066406 -0.253906 4.671875 -0.078125 C 4.285156 0.0859375 3.859375 0.171875 3.390625 0.171875 C 2.960938 0.171875 2.625 0.117188 2.375 0.015625 C 2.125 -0.078125 1.90625 -0.175781 1.71875 -0.28125 C 1.539062 -0.394531 1.40625 -0.453125 1.3125 -0.453125 C 1.226562 -0.453125 1.164062 -0.40625 1.125 -0.3125 C 1.09375 -0.226562 1.066406 -0.0976562 1.046875 0.078125 L 0.765625 0.078125 C 0.785156 -0.0859375 0.796875 -0.285156 0.796875 -0.515625 C 0.796875 -0.742188 0.796875 -1.046875 0.796875 -1.421875 C 0.804688 -1.796875 0.8125 -2.265625 0.8125 -2.828125 L 1.09375 -2.828125 C 1.125 -2.347656 1.210938 -1.894531 1.359375 -1.46875 C 1.515625 -1.050781 1.75 -0.710938 2.0625 -0.453125 C 2.375 -0.203125 2.789062 -0.078125 3.3125 -0.078125 C 3.570312 -0.078125 3.820312 -0.128906 4.0625 -0.234375 C 4.300781 -0.347656 4.5 -0.523438 4.65625 -0.765625 C 4.8125 -1.003906 4.890625 -1.3125 4.890625 -1.6875 C 4.890625 -2.019531 4.804688 -2.304688 4.640625 -2.546875 C 4.484375 -2.796875 4.265625 -3.03125 3.984375 -3.25 C 3.703125 -3.46875 3.367188 -3.691406 2.984375 -3.921875 C 2.609375 -4.148438 2.253906 -4.382812 1.921875 -4.625 C 1.585938 -4.875 1.320312 -5.15625 1.125 -5.46875 C 0.925781 -5.789062 0.828125 -6.179688 0.828125 -6.640625 C 0.828125 -7.117188 0.929688 -7.515625 1.140625 -7.828125 C 1.359375 -8.140625 1.640625 -8.367188 1.984375 -8.515625 C 2.335938 -8.660156 2.710938 -8.734375 3.109375 -8.734375 Z M 3.109375 -8.734375 "/></g></g></g></g></g></g><g clip-path="url(#b89af14333)"><path fill="#ff3131" d="M 18.960938 9.035156 L 18.960938 25.894531 L 21.6875 24.160156 L 21.6875 10.777344 L 22.761719 10.777344 L 22.761719 24.75 L 17.886719 27.851562 L 17.886719 7.960938 L 31.90625 7.960938 L 33.441406 5.328125 L 18.421875 5.328125 L 18.421875 4.253906 L 35.316406 4.253906 L 32.523438 9.035156 Z M 6.890625 2.242188 L 30.328125 2.242188 L 29.144531 1.167969 L 6.28125 1.167969 L 3.039062 6.621094 L 13.945312 6.621094 L 13.945312 25.082031 L 15.019531 26.164062 L 15.019531 5.542969 L 4.929688 5.542969 Z M 6.890625 2.242188 " fill-opacity="1" fill-rule="nonzero"/></g><g clip-path="url(#9684a680d9)"><path fill="#ffffff" d="M 18.507812 9.574219 L 18.507812 25.953125 L 21.15625 24.265625 L 21.15625 11.265625 L 22.199219 11.265625 L 22.199219 24.839844 L 17.464844 27.855469 L 17.464844 8.527344 L 31.085938 8.527344 L 32.578125 5.972656 L 17.984375 5.972656 L 17.984375 4.925781 L 34.398438 4.925781 L 31.683594 9.574219 Z M 6.78125 2.972656 L 29.550781 2.972656 L 28.402344 1.929688 L 6.191406 1.929688 L 3.039062 7.226562 L 13.636719 7.226562 L 13.636719 25.164062 L 14.679688 26.214844 L 14.679688 6.179688 L 4.875 6.179688 Z M 6.78125 2.972656 " fill-opacity="1" fill-rule="nonzero"/></g></svg>