<svg xmlns="http://www.w3.org/2000/svg" xmlns:xlink="http://www.w3.org/1999/xlink" width="247" zoomAndPan="magnify" viewBox="0 0 185.25 30.000001" height="40" preserveAspectRatio="xMidYMid meet" version="1.0"><defs><g/><clipPath id="d8a81b85e0"><path d="M 168 7 L 181.898438 7 L 181.898438 22 L 168 22 Z M 168 7 " clip-rule="nonzero"/></clipPath><clipPath id="761eaacad6"><path d="M 0.703125 0.902344 L 23.976562 0.902344 L 23.976562 14 L 0.703125 14 Z M 0.703125 0.902344 " clip-rule="nonzero"/></clipPath><clipPath id="940f177843"><path d="M 2 11 L 23 11 L 23 24.59375 L 2 24.59375 Z M 2 11 " clip-rule="nonzero"/></clipPath><clipPath id="8625d8a4cf"><path d="M 9 5.925781 L 16 5.925781 L 16 11 L 9 11 Z M 9 5.925781 " clip-rule="nonzero"/></clipPath><clipPath id="7d6852e3cb"><path d="M 6.007812 12 L 12 12 L 12 18 L 6.007812 18 Z M 6.007812 12 " clip-rule="nonzero"/></clipPath><clipPath id="f789401faa"><path d="M 10 12 L 18.625 12 L 18.625 19.523438 L 10 19.523438 Z M 10 12 " clip-rule="nonzero"/></clipPath><clipPath id="89441173d8"><rect x="0" width="25" y="0" height="25"/></clipPath><clipPath id="637999aec1"><path d="M 12.359375 0.902344 L 23.976562 0.902344 L 23.976562 14 L 12.359375 14 Z M 12.359375 0.902344 " clip-rule="nonzero"/></clipPath><clipPath id="3ec6acb564"><path d="M 12.359375 11 L 23 11 L 23 24.59375 L 12.359375 24.59375 Z M 12.359375 11 " clip-rule="nonzero"/></clipPath><clipPath id="950f96f4f8"><path d="M 12.1875 5.925781 L 16 5.925781 L 16 11 L 12.1875 11 Z M 12.1875 5.925781 " clip-rule="nonzero"/></clipPath><clipPath id="379ee39096"><path d="M 12.1875 10 L 18 10 L 18 13 L 12.1875 13 Z M 12.1875 10 " clip-rule="nonzero"/></clipPath><clipPath id="c6ad542baf"><path d="M 12.1875 12 L 18.625 12 L 18.625 19.523438 L 12.1875 19.523438 Z M 12.1875 12 " clip-rule="nonzero"/></clipPath><clipPath id="67f4df49e2"><path d="M 12.1875 12 L 16 12 L 16 15 L 12.1875 15 Z M 12.1875 12 " clip-rule="nonzero"/></clipPath><clipPath id="431d08c490"><rect x="0" width="25" y="0" height="25"/></clipPath></defs><g fill="#ffffff" fill-opacity="1"><g transform="translate(28.557583, 21.836167)"><g><path d="M 18.203125 -14.203125 L 18.203125 -13.796875 C 17.941406 -13.742188 17.65625 -13.59375 17.34375 -13.34375 C 17.039062 -13.101562 16.796875 -12.675781 16.609375 -12.0625 L 12.8125 0.09375 C 12.789062 0.09375 12.765625 0.09375 12.734375 0.09375 C 12.710938 0.09375 12.6875 0.09375 12.65625 0.09375 C 12.632812 0.09375 12.609375 0.09375 12.578125 0.09375 C 12.546875 0.09375 12.519531 0.09375 12.5 0.09375 L 8.25 -12.515625 C 8.070312 -13.035156 7.875 -13.375 7.65625 -13.53125 C 7.445312 -13.695312 7.25 -13.785156 7.0625 -13.796875 L 7.0625 -14.203125 C 7.300781 -14.191406 7.597656 -14.175781 7.953125 -14.15625 C 8.316406 -14.144531 8.671875 -14.140625 9.015625 -14.140625 C 9.535156 -14.140625 10.019531 -14.144531 10.46875 -14.15625 C 10.925781 -14.175781 11.296875 -14.191406 11.578125 -14.203125 L 11.578125 -13.796875 C 11.171875 -13.785156 10.847656 -13.742188 10.609375 -13.671875 C 10.378906 -13.609375 10.25 -13.460938 10.21875 -13.234375 C 10.1875 -13.015625 10.25 -12.644531 10.40625 -12.125 L 13.40625 -2.875 L 13.125 -2.625 L 15.765625 -10.953125 C 16.003906 -11.691406 16.113281 -12.265625 16.09375 -12.671875 C 16.070312 -13.078125 15.921875 -13.363281 15.640625 -13.53125 C 15.367188 -13.695312 14.953125 -13.785156 14.390625 -13.796875 L 14.390625 -14.203125 C 14.773438 -14.191406 15.164062 -14.175781 15.5625 -14.15625 C 15.96875 -14.144531 16.34375 -14.140625 16.6875 -14.140625 C 17.039062 -14.140625 17.328125 -14.144531 17.546875 -14.15625 C 17.773438 -14.175781 17.992188 -14.191406 18.203125 -14.203125 Z M 4.171875 -14.203125 L 4.171875 -13.796875 C 3.828125 -13.773438 3.578125 -13.707031 3.421875 -13.59375 C 3.265625 -13.488281 3.1875 -13.316406 3.1875 -13.078125 C 3.195312 -12.847656 3.269531 -12.53125 3.40625 -12.125 L 6.515625 -2.625 L 6.015625 -2.125 L 8.828125 -11.09375 L 9.125 -10.609375 L 5.8125 0.09375 C 5.789062 0.09375 5.765625 0.09375 5.734375 0.09375 C 5.710938 0.09375 5.6875 0.09375 5.65625 0.09375 C 5.632812 0.09375 5.609375 0.09375 5.578125 0.09375 C 5.546875 0.09375 5.519531 0.09375 5.5 0.09375 L 1.25 -12.515625 C 1.070312 -13.035156 0.847656 -13.375 0.578125 -13.53125 C 0.316406 -13.695312 0.078125 -13.785156 -0.140625 -13.796875 L -0.140625 -14.203125 C 0.128906 -14.191406 0.457031 -14.175781 0.84375 -14.15625 C 1.238281 -14.144531 1.625 -14.140625 2 -14.140625 C 2.445312 -14.140625 2.859375 -14.144531 3.234375 -14.15625 C 3.617188 -14.175781 3.929688 -14.191406 4.171875 -14.203125 Z M 4.171875 -14.203125 "/></g></g></g><g fill="#ffffff" fill-opacity="1"><g transform="translate(46.713432, 21.836167)"><g><path d="M 10.859375 -14.203125 C 10.804688 -13.734375 10.769531 -13.273438 10.75 -12.828125 C 10.726562 -12.390625 10.71875 -12.0625 10.71875 -11.84375 C 10.71875 -11.59375 10.722656 -11.359375 10.734375 -11.140625 C 10.742188 -10.921875 10.757812 -10.738281 10.78125 -10.59375 L 10.3125 -10.59375 C 10.226562 -11.382812 10.113281 -12.007812 9.96875 -12.46875 C 9.820312 -12.925781 9.570312 -13.253906 9.21875 -13.453125 C 8.863281 -13.648438 8.332031 -13.75 7.625 -13.75 L 5.953125 -13.75 C 5.503906 -13.75 5.160156 -13.707031 4.921875 -13.625 C 4.691406 -13.550781 4.535156 -13.394531 4.453125 -13.15625 C 4.367188 -12.925781 4.328125 -12.566406 4.328125 -12.078125 L 4.328125 -2.125 C 4.328125 -1.644531 4.367188 -1.285156 4.453125 -1.046875 C 4.535156 -0.804688 4.691406 -0.648438 4.921875 -0.578125 C 5.160156 -0.503906 5.503906 -0.46875 5.953125 -0.46875 L 7.421875 -0.46875 C 8.265625 -0.46875 8.898438 -0.578125 9.328125 -0.796875 C 9.765625 -1.023438 10.082031 -1.394531 10.28125 -1.90625 C 10.476562 -2.425781 10.625 -3.128906 10.71875 -4.015625 L 11.171875 -4.015625 C 11.128906 -3.648438 11.109375 -3.164062 11.109375 -2.5625 C 11.109375 -2.3125 11.117188 -1.945312 11.140625 -1.46875 C 11.160156 -1 11.195312 -0.507812 11.25 0 C 10.570312 -0.03125 9.800781 -0.046875 8.9375 -0.046875 C 8.082031 -0.0546875 7.320312 -0.0625 6.65625 -0.0625 C 6.363281 -0.0625 5.984375 -0.0625 5.515625 -0.0625 C 5.054688 -0.0625 4.5625 -0.0546875 4.03125 -0.046875 C 3.5 -0.046875 2.957031 -0.0390625 2.40625 -0.03125 C 1.851562 -0.0195312 1.332031 -0.0078125 0.84375 0 L 0.84375 -0.40625 C 1.300781 -0.425781 1.644531 -0.476562 1.875 -0.5625 C 2.113281 -0.644531 2.269531 -0.804688 2.34375 -1.046875 C 2.425781 -1.285156 2.46875 -1.644531 2.46875 -2.125 L 2.46875 -12.078125 C 2.46875 -12.566406 2.425781 -12.925781 2.34375 -13.15625 C 2.269531 -13.394531 2.113281 -13.554688 1.875 -13.640625 C 1.644531 -13.734375 1.300781 -13.785156 0.84375 -13.796875 L 0.84375 -14.203125 C 1.332031 -14.191406 1.851562 -14.179688 2.40625 -14.171875 C 2.957031 -14.171875 3.5 -14.164062 4.03125 -14.15625 C 4.5625 -14.144531 5.054688 -14.140625 5.515625 -14.140625 C 5.984375 -14.140625 6.363281 -14.140625 6.65625 -14.140625 C 7.269531 -14.140625 7.96875 -14.144531 8.75 -14.15625 C 9.539062 -14.164062 10.242188 -14.179688 10.859375 -14.203125 Z M 7.40625 -7.34375 C 7.40625 -7.34375 7.40625 -7.273438 7.40625 -7.140625 C 7.40625 -7.003906 7.40625 -6.9375 7.40625 -6.9375 L 3.734375 -6.9375 C 3.734375 -6.9375 3.734375 -7.003906 3.734375 -7.140625 C 3.734375 -7.273438 3.734375 -7.34375 3.734375 -7.34375 Z M 7.984375 -9.984375 C 7.929688 -9.222656 7.90625 -8.640625 7.90625 -8.234375 C 7.914062 -7.835938 7.921875 -7.472656 7.921875 -7.140625 C 7.921875 -6.804688 7.925781 -6.4375 7.9375 -6.03125 C 7.957031 -5.632812 7.992188 -5.054688 8.046875 -4.296875 L 7.578125 -4.296875 C 7.523438 -4.722656 7.460938 -5.140625 7.390625 -5.546875 C 7.316406 -5.953125 7.15625 -6.285156 6.90625 -6.546875 C 6.664062 -6.804688 6.25 -6.9375 5.65625 -6.9375 L 5.65625 -7.34375 C 6.09375 -7.34375 6.425781 -7.429688 6.65625 -7.609375 C 6.894531 -7.796875 7.066406 -8.03125 7.171875 -8.3125 C 7.285156 -8.59375 7.363281 -8.878906 7.40625 -9.171875 C 7.445312 -9.472656 7.484375 -9.742188 7.515625 -9.984375 Z M 7.984375 -9.984375 "/></g></g></g><g fill="#ffffff" fill-opacity="1"><g transform="translate(58.931015, 21.836167)"><g><path d="M 0.84375 -14.203125 C 1.125 -14.191406 1.488281 -14.175781 1.9375 -14.15625 C 2.394531 -14.144531 2.847656 -14.140625 3.296875 -14.140625 C 3.921875 -14.140625 4.519531 -14.144531 5.09375 -14.15625 C 5.664062 -14.175781 6.070312 -14.1875 6.3125 -14.1875 C 7.71875 -14.1875 8.773438 -13.890625 9.484375 -13.296875 C 10.191406 -12.710938 10.546875 -11.957031 10.546875 -11.03125 C 10.546875 -10.5625 10.445312 -10.101562 10.25 -9.65625 C 10.0625 -9.207031 9.742188 -8.800781 9.296875 -8.4375 C 8.847656 -8.070312 8.25 -7.773438 7.5 -7.546875 L 7.5 -7.5 C 8.5625 -7.363281 9.390625 -7.113281 9.984375 -6.75 C 10.578125 -6.382812 10.992188 -5.953125 11.234375 -5.453125 C 11.472656 -4.960938 11.59375 -4.441406 11.59375 -3.890625 C 11.59375 -3.128906 11.398438 -2.457031 11.015625 -1.875 C 10.640625 -1.289062 10.085938 -0.832031 9.359375 -0.5 C 8.640625 -0.164062 7.78125 0 6.78125 0 C 6.488281 0 6.046875 -0.0078125 5.453125 -0.03125 C 4.867188 -0.0507812 4.160156 -0.0625 3.328125 -0.0625 C 2.859375 -0.0625 2.394531 -0.0546875 1.9375 -0.046875 C 1.488281 -0.046875 1.125 -0.03125 0.84375 0 L 0.84375 -0.40625 C 1.300781 -0.425781 1.644531 -0.476562 1.875 -0.5625 C 2.113281 -0.644531 2.269531 -0.804688 2.34375 -1.046875 C 2.425781 -1.285156 2.46875 -1.644531 2.46875 -2.125 L 2.46875 -12.078125 C 2.46875 -12.566406 2.425781 -12.925781 2.34375 -13.15625 C 2.269531 -13.394531 2.113281 -13.554688 1.875 -13.640625 C 1.644531 -13.734375 1.300781 -13.785156 0.84375 -13.796875 Z M 5.8125 -13.796875 C 5.195312 -13.796875 4.796875 -13.679688 4.609375 -13.453125 C 4.421875 -13.234375 4.328125 -12.773438 4.328125 -12.078125 L 4.328125 -2.125 C 4.328125 -1.65625 4.367188 -1.300781 4.453125 -1.0625 C 4.535156 -0.820312 4.679688 -0.660156 4.890625 -0.578125 C 5.109375 -0.503906 5.425781 -0.46875 5.84375 -0.46875 C 7.144531 -0.46875 8.09375 -0.769531 8.6875 -1.375 C 9.289062 -1.976562 9.59375 -2.84375 9.59375 -3.96875 C 9.59375 -5 9.3125 -5.796875 8.75 -6.359375 C 8.195312 -6.921875 7.285156 -7.203125 6.015625 -7.203125 L 3.953125 -7.203125 C 3.953125 -7.203125 3.953125 -7.257812 3.953125 -7.375 C 3.953125 -7.488281 3.953125 -7.546875 3.953125 -7.546875 L 5.671875 -7.546875 C 6.460938 -7.546875 7.070312 -7.695312 7.5 -8 C 7.925781 -8.300781 8.21875 -8.703125 8.375 -9.203125 C 8.539062 -9.703125 8.625 -10.238281 8.625 -10.8125 C 8.625 -11.800781 8.40625 -12.546875 7.96875 -13.046875 C 7.539062 -13.546875 6.820312 -13.796875 5.8125 -13.796875 Z M 5.8125 -13.796875 "/></g></g></g><g fill="#ffffff" fill-opacity="1"><g transform="translate(71.429459, 21.836167)"><g><path d="M 13.4375 -14.203125 L 13.4375 -13.796875 C 12.988281 -13.785156 12.644531 -13.71875 12.40625 -13.59375 C 12.175781 -13.476562 12.019531 -13.285156 11.9375 -13.015625 C 11.851562 -12.753906 11.8125 -12.375 11.8125 -11.875 L 11.8125 0.09375 C 11.738281 0.09375 11.660156 0.09375 11.578125 0.09375 C 11.503906 0.09375 11.429688 0.09375 11.359375 0.09375 L 2.921875 -12.921875 L 2.921875 -2.328125 C 2.921875 -1.847656 2.960938 -1.46875 3.046875 -1.1875 C 3.140625 -0.914062 3.316406 -0.722656 3.578125 -0.609375 C 3.835938 -0.492188 4.226562 -0.425781 4.75 -0.40625 L 4.75 0 C 4.507812 -0.03125 4.195312 -0.046875 3.8125 -0.046875 C 3.425781 -0.0546875 3.054688 -0.0625 2.703125 -0.0625 C 2.367188 -0.0625 2.03125 -0.0546875 1.6875 -0.046875 C 1.351562 -0.046875 1.070312 -0.03125 0.84375 0 L 0.84375 -0.40625 C 1.300781 -0.425781 1.644531 -0.492188 1.875 -0.609375 C 2.113281 -0.722656 2.269531 -0.914062 2.34375 -1.1875 C 2.425781 -1.46875 2.46875 -1.847656 2.46875 -2.328125 L 2.46875 -12.078125 C 2.46875 -12.566406 2.425781 -12.925781 2.34375 -13.15625 C 2.269531 -13.394531 2.113281 -13.554688 1.875 -13.640625 C 1.644531 -13.734375 1.300781 -13.785156 0.84375 -13.796875 L 0.84375 -14.203125 C 1.070312 -14.191406 1.351562 -14.175781 1.6875 -14.15625 C 2.03125 -14.144531 2.367188 -14.140625 2.703125 -14.140625 C 3.003906 -14.140625 3.285156 -14.144531 3.546875 -14.15625 C 3.816406 -14.175781 4.054688 -14.191406 4.265625 -14.203125 L 11.359375 -3.296875 L 11.359375 -11.875 C 11.359375 -12.375 11.3125 -12.753906 11.21875 -13.015625 C 11.132812 -13.285156 10.960938 -13.476562 10.703125 -13.59375 C 10.441406 -13.71875 10.050781 -13.785156 9.53125 -13.796875 L 9.53125 -14.203125 C 9.769531 -14.191406 10.085938 -14.175781 10.484375 -14.15625 C 10.878906 -14.144531 11.242188 -14.140625 11.578125 -14.140625 C 11.921875 -14.140625 12.265625 -14.144531 12.609375 -14.15625 C 12.953125 -14.175781 13.226562 -14.191406 13.4375 -14.203125 Z M 13.4375 -14.203125 "/></g></g></g><g fill="#ffffff" fill-opacity="1"><g transform="translate(85.593028, 21.836167)"><g><path d="M 10.859375 -14.203125 C 10.804688 -13.734375 10.769531 -13.273438 10.75 -12.828125 C 10.726562 -12.390625 10.71875 -12.0625 10.71875 -11.84375 C 10.71875 -11.59375 10.722656 -11.359375 10.734375 -11.140625 C 10.742188 -10.921875 10.757812 -10.738281 10.78125 -10.59375 L 10.3125 -10.59375 C 10.226562 -11.382812 10.113281 -12.007812 9.96875 -12.46875 C 9.820312 -12.925781 9.570312 -13.253906 9.21875 -13.453125 C 8.863281 -13.648438 8.332031 -13.75 7.625 -13.75 L 5.953125 -13.75 C 5.503906 -13.75 5.160156 -13.707031 4.921875 -13.625 C 4.691406 -13.550781 4.535156 -13.394531 4.453125 -13.15625 C 4.367188 -12.925781 4.328125 -12.566406 4.328125 -12.078125 L 4.328125 -2.125 C 4.328125 -1.644531 4.367188 -1.285156 4.453125 -1.046875 C 4.535156 -0.804688 4.691406 -0.648438 4.921875 -0.578125 C 5.160156 -0.503906 5.503906 -0.46875 5.953125 -0.46875 L 7.421875 -0.46875 C 8.265625 -0.46875 8.898438 -0.578125 9.328125 -0.796875 C 9.765625 -1.023438 10.082031 -1.394531 10.28125 -1.90625 C 10.476562 -2.425781 10.625 -3.128906 10.71875 -4.015625 L 11.171875 -4.015625 C 11.128906 -3.648438 11.109375 -3.164062 11.109375 -2.5625 C 11.109375 -2.3125 11.117188 -1.945312 11.140625 -1.46875 C 11.160156 -1 11.195312 -0.507812 11.25 0 C 10.570312 -0.03125 9.800781 -0.046875 8.9375 -0.046875 C 8.082031 -0.0546875 7.320312 -0.0625 6.65625 -0.0625 C 6.363281 -0.0625 5.984375 -0.0625 5.515625 -0.0625 C 5.054688 -0.0625 4.5625 -0.0546875 4.03125 -0.046875 C 3.5 -0.046875 2.957031 -0.0390625 2.40625 -0.03125 C 1.851562 -0.0195312 1.332031 -0.0078125 0.84375 0 L 0.84375 -0.40625 C 1.300781 -0.425781 1.644531 -0.476562 1.875 -0.5625 C 2.113281 -0.644531 2.269531 -0.804688 2.34375 -1.046875 C 2.425781 -1.285156 2.46875 -1.644531 2.46875 -2.125 L 2.46875 -12.078125 C 2.46875 -12.566406 2.425781 -12.925781 2.34375 -13.15625 C 2.269531 -13.394531 2.113281 -13.554688 1.875 -13.640625 C 1.644531 -13.734375 1.300781 -13.785156 0.84375 -13.796875 L 0.84375 -14.203125 C 1.332031 -14.191406 1.851562 -14.179688 2.40625 -14.171875 C 2.957031 -14.171875 3.5 -14.164062 4.03125 -14.15625 C 4.5625 -14.144531 5.054688 -14.140625 5.515625 -14.140625 C 5.984375 -14.140625 6.363281 -14.140625 6.65625 -14.140625 C 7.269531 -14.140625 7.96875 -14.144531 8.75 -14.15625 C 9.539062 -14.164062 10.242188 -14.179688 10.859375 -14.203125 Z M 7.40625 -7.34375 C 7.40625 -7.34375 7.40625 -7.273438 7.40625 -7.140625 C 7.40625 -7.003906 7.40625 -6.9375 7.40625 -6.9375 L 3.734375 -6.9375 C 3.734375 -6.9375 3.734375 -7.003906 3.734375 -7.140625 C 3.734375 -7.273438 3.734375 -7.34375 3.734375 -7.34375 Z M 7.984375 -9.984375 C 7.929688 -9.222656 7.90625 -8.640625 7.90625 -8.234375 C 7.914062 -7.835938 7.921875 -7.472656 7.921875 -7.140625 C 7.921875 -6.804688 7.925781 -6.4375 7.9375 -6.03125 C 7.957031 -5.632812 7.992188 -5.054688 8.046875 -4.296875 L 7.578125 -4.296875 C 7.523438 -4.722656 7.460938 -5.140625 7.390625 -5.546875 C 7.316406 -5.953125 7.15625 -6.285156 6.90625 -6.546875 C 6.664062 -6.804688 6.25 -6.9375 5.65625 -6.9375 L 5.65625 -7.34375 C 6.09375 -7.34375 6.425781 -7.429688 6.65625 -7.609375 C 6.894531 -7.796875 7.066406 -8.03125 7.171875 -8.3125 C 7.285156 -8.59375 7.363281 -8.878906 7.40625 -9.171875 C 7.445312 -9.472656 7.484375 -9.742188 7.515625 -9.984375 Z M 7.984375 -9.984375 "/></g></g></g><g fill="#ffffff" fill-opacity="1"><g transform="translate(97.810612, 21.836167)"><g><path d="M 4.890625 -14.203125 L 4.890625 -13.78125 C 4.222656 -13.78125 3.816406 -13.707031 3.671875 -13.5625 C 3.523438 -13.425781 3.546875 -13.207031 3.734375 -12.90625 L 11.234375 -1.421875 C 11.484375 -1.035156 11.695312 -0.78125 11.875 -0.65625 C 12.050781 -0.53125 12.285156 -0.453125 12.578125 -0.421875 L 12.578125 0 C 12.398438 -0.0078125 12.15625 -0.0234375 11.84375 -0.046875 C 11.53125 -0.0664062 11.203125 -0.078125 10.859375 -0.078125 C 10.316406 -0.078125 9.773438 -0.0664062 9.234375 -0.046875 C 8.691406 -0.0234375 8.289062 -0.0078125 8.03125 0 L 8.03125 -0.421875 C 8.695312 -0.421875 9.125 -0.457031 9.3125 -0.53125 C 9.5 -0.613281 9.5 -0.804688 9.3125 -1.109375 L 1.6875 -12.78125 C 1.425781 -13.164062 1.210938 -13.425781 1.046875 -13.5625 C 0.878906 -13.695312 0.644531 -13.769531 0.34375 -13.78125 L 0.34375 -14.203125 C 0.519531 -14.191406 0.765625 -14.175781 1.078125 -14.15625 C 1.398438 -14.132812 1.726562 -14.125 2.0625 -14.125 C 2.613281 -14.125 3.128906 -14.132812 3.609375 -14.15625 C 4.085938 -14.175781 4.515625 -14.191406 4.890625 -14.203125 Z M 6 -7.328125 C 6 -7.328125 6.007812 -7.28125 6.03125 -7.1875 C 6.0625 -7.101562 6.09375 -7.015625 6.125 -6.921875 C 6.15625 -6.835938 6.171875 -6.796875 6.171875 -6.796875 L 3.71875 -3.125 C 3.226562 -2.40625 2.972656 -1.847656 2.953125 -1.453125 C 2.929688 -1.066406 3.082031 -0.796875 3.40625 -0.640625 C 3.726562 -0.492188 4.171875 -0.414062 4.734375 -0.40625 L 4.734375 0 C 4.546875 -0.0078125 4.332031 -0.0195312 4.09375 -0.03125 C 3.851562 -0.0390625 3.609375 -0.046875 3.359375 -0.046875 C 3.109375 -0.0546875 2.863281 -0.0625 2.625 -0.0625 C 2.394531 -0.0625 2.195312 -0.0625 2.03125 -0.0625 C 1.695312 -0.0625 1.378906 -0.0546875 1.078125 -0.046875 C 0.773438 -0.046875 0.523438 -0.03125 0.328125 0 L 0.328125 -0.40625 C 0.734375 -0.46875 1.117188 -0.648438 1.484375 -0.953125 C 1.847656 -1.265625 2.21875 -1.695312 2.59375 -2.25 Z M 12.15625 -14.203125 L 12.15625 -13.796875 C 11.738281 -13.742188 11.347656 -13.5625 10.984375 -13.25 C 10.628906 -12.9375 10.265625 -12.503906 9.890625 -11.953125 L 6.65625 -7.140625 C 6.65625 -7.140625 6.632812 -7.222656 6.59375 -7.390625 C 6.5625 -7.566406 6.546875 -7.65625 6.546875 -7.65625 L 8.828125 -11.078125 C 9.304688 -11.796875 9.585938 -12.347656 9.671875 -12.734375 C 9.753906 -13.128906 9.660156 -13.398438 9.390625 -13.546875 C 9.117188 -13.703125 8.703125 -13.785156 8.140625 -13.796875 L 8.140625 -14.203125 C 8.398438 -14.191406 8.660156 -14.179688 8.921875 -14.171875 C 9.191406 -14.171875 9.457031 -14.164062 9.71875 -14.15625 C 9.976562 -14.144531 10.222656 -14.140625 10.453125 -14.140625 C 10.796875 -14.140625 11.113281 -14.144531 11.40625 -14.15625 C 11.707031 -14.175781 11.957031 -14.191406 12.15625 -14.203125 Z M 12.15625 -14.203125 "/></g></g></g><g fill="#ff3131" fill-opacity="1"><g transform="translate(110.539689, 21.836167)"><g><path d="M 10.859375 -14.203125 C 10.804688 -13.691406 10.769531 -13.195312 10.75 -12.71875 C 10.726562 -12.25 10.71875 -11.890625 10.71875 -11.640625 C 10.71875 -11.316406 10.722656 -11.015625 10.734375 -10.734375 C 10.742188 -10.453125 10.757812 -10.203125 10.78125 -9.984375 L 10.3125 -9.984375 C 10.21875 -10.921875 10.085938 -11.660156 9.921875 -12.203125 C 9.765625 -12.742188 9.484375 -13.132812 9.078125 -13.375 C 8.679688 -13.625 8.0625 -13.75 7.21875 -13.75 L 5.953125 -13.75 C 5.503906 -13.75 5.160156 -13.707031 4.921875 -13.625 C 4.691406 -13.550781 4.535156 -13.394531 4.453125 -13.15625 C 4.367188 -12.925781 4.328125 -12.566406 4.328125 -12.078125 L 4.328125 -2.125 C 4.328125 -1.644531 4.378906 -1.285156 4.484375 -1.046875 C 4.585938 -0.804688 4.785156 -0.644531 5.078125 -0.5625 C 5.367188 -0.476562 5.796875 -0.425781 6.359375 -0.40625 L 6.359375 0 C 6.015625 -0.03125 5.570312 -0.046875 5.03125 -0.046875 C 4.5 -0.0546875 3.957031 -0.0625 3.40625 -0.0625 C 2.882812 -0.0625 2.394531 -0.0546875 1.9375 -0.046875 C 1.488281 -0.046875 1.125 -0.03125 0.84375 0 L 0.84375 -0.40625 C 1.300781 -0.425781 1.644531 -0.476562 1.875 -0.5625 C 2.113281 -0.644531 2.269531 -0.804688 2.34375 -1.046875 C 2.425781 -1.285156 2.46875 -1.644531 2.46875 -2.125 L 2.46875 -12.078125 C 2.46875 -12.566406 2.425781 -12.925781 2.34375 -13.15625 C 2.269531 -13.394531 2.113281 -13.554688 1.875 -13.640625 C 1.644531 -13.734375 1.300781 -13.785156 0.84375 -13.796875 L 0.84375 -14.203125 C 1.332031 -14.191406 1.851562 -14.179688 2.40625 -14.171875 C 2.957031 -14.171875 3.5 -14.164062 4.03125 -14.15625 C 4.5625 -14.144531 5.054688 -14.140625 5.515625 -14.140625 C 5.984375 -14.140625 6.363281 -14.140625 6.65625 -14.140625 C 7.269531 -14.140625 7.96875 -14.144531 8.75 -14.15625 C 9.539062 -14.164062 10.242188 -14.179688 10.859375 -14.203125 Z M 7.75 -7.140625 C 7.75 -7.140625 7.75 -7.070312 7.75 -6.9375 C 7.75 -6.800781 7.75 -6.734375 7.75 -6.734375 L 3.734375 -6.734375 C 3.734375 -6.734375 3.734375 -6.800781 3.734375 -6.9375 C 3.734375 -7.070312 3.734375 -7.140625 3.734375 -7.140625 Z M 8.125 -9.796875 C 8.070312 -9.023438 8.046875 -8.4375 8.046875 -8.03125 C 8.054688 -7.632812 8.0625 -7.269531 8.0625 -6.9375 C 8.0625 -6.601562 8.066406 -6.234375 8.078125 -5.828125 C 8.097656 -5.429688 8.132812 -4.851562 8.1875 -4.09375 L 7.71875 -4.09375 C 7.664062 -4.519531 7.601562 -4.9375 7.53125 -5.34375 C 7.457031 -5.75 7.296875 -6.082031 7.046875 -6.34375 C 6.804688 -6.601562 6.390625 -6.734375 5.796875 -6.734375 L 5.796875 -7.140625 C 6.234375 -7.140625 6.566406 -7.226562 6.796875 -7.40625 C 7.035156 -7.59375 7.207031 -7.828125 7.3125 -8.109375 C 7.425781 -8.390625 7.503906 -8.675781 7.546875 -8.96875 C 7.585938 -9.269531 7.625 -9.546875 7.65625 -9.796875 Z M 8.125 -9.796875 "/></g></g></g><g fill="#ffffff" fill-opacity="1"><g transform="translate(121.9598, 21.836167)"><g><path d="M 13.140625 -14.203125 L 13.140625 -13.796875 C 12.679688 -13.785156 12.332031 -13.71875 12.09375 -13.59375 C 11.863281 -13.476562 11.707031 -13.285156 11.625 -13.015625 C 11.550781 -12.753906 11.515625 -12.375 11.515625 -11.875 L 11.515625 -5.84375 C 11.515625 -4.90625 11.453125 -4.085938 11.328125 -3.390625 C 11.210938 -2.691406 11 -2.085938 10.6875 -1.578125 C 10.351562 -1.023438 9.863281 -0.578125 9.21875 -0.234375 C 8.582031 0.109375 7.847656 0.28125 7.015625 0.28125 C 6.378906 0.28125 5.769531 0.203125 5.1875 0.046875 C 4.601562 -0.109375 4.09375 -0.390625 3.65625 -0.796875 C 3.257812 -1.171875 2.953125 -1.566406 2.734375 -1.984375 C 2.515625 -2.398438 2.363281 -2.90625 2.28125 -3.5 C 2.207031 -4.101562 2.171875 -4.863281 2.171875 -5.78125 L 2.171875 -12.078125 C 2.171875 -12.566406 2.128906 -12.925781 2.046875 -13.15625 C 1.960938 -13.394531 1.800781 -13.554688 1.5625 -13.640625 C 1.332031 -13.734375 0.992188 -13.785156 0.546875 -13.796875 L 0.546875 -14.203125 C 0.828125 -14.191406 1.191406 -14.175781 1.640625 -14.15625 C 2.097656 -14.144531 2.585938 -14.140625 3.109375 -14.140625 C 3.578125 -14.140625 4.039062 -14.144531 4.5 -14.15625 C 4.96875 -14.175781 5.351562 -14.191406 5.65625 -14.203125 L 5.65625 -13.796875 C 5.195312 -13.785156 4.847656 -13.734375 4.609375 -13.640625 C 4.378906 -13.554688 4.222656 -13.394531 4.140625 -13.15625 C 4.066406 -12.925781 4.03125 -12.566406 4.03125 -12.078125 L 4.03125 -5.4375 C 4.03125 -4.75 4.0625 -4.101562 4.125 -3.5 C 4.195312 -2.894531 4.335938 -2.359375 4.546875 -1.890625 C 4.753906 -1.429688 5.070312 -1.070312 5.5 -0.8125 C 5.925781 -0.550781 6.492188 -0.421875 7.203125 -0.421875 C 8.222656 -0.421875 9.007812 -0.644531 9.5625 -1.09375 C 10.113281 -1.539062 10.5 -2.160156 10.71875 -2.953125 C 10.9375 -3.742188 11.046875 -4.632812 11.046875 -5.625 L 11.046875 -11.875 C 11.046875 -12.375 10.988281 -12.753906 10.875 -13.015625 C 10.769531 -13.285156 10.582031 -13.476562 10.3125 -13.59375 C 10.039062 -13.71875 9.679688 -13.785156 9.234375 -13.796875 L 9.234375 -14.203125 C 9.472656 -14.191406 9.789062 -14.175781 10.1875 -14.15625 C 10.582031 -14.144531 10.945312 -14.140625 11.28125 -14.140625 C 11.625 -14.140625 11.960938 -14.144531 12.296875 -14.15625 C 12.640625 -14.175781 12.921875 -14.191406 13.140625 -14.203125 Z M 13.140625 -14.203125 "/></g></g></g><g fill="#ffffff" fill-opacity="1"><g transform="translate(135.641887, 21.836167)"><g><path d="M 5.140625 -14.421875 C 5.804688 -14.421875 6.3125 -14.34375 6.65625 -14.1875 C 7.007812 -14.039062 7.316406 -13.875 7.578125 -13.6875 C 7.742188 -13.59375 7.875 -13.519531 7.96875 -13.46875 C 8.070312 -13.425781 8.171875 -13.40625 8.265625 -13.40625 C 8.398438 -13.40625 8.492188 -13.476562 8.546875 -13.625 C 8.609375 -13.769531 8.660156 -13.988281 8.703125 -14.28125 L 9.171875 -14.28125 C 9.160156 -14.050781 9.144531 -13.78125 9.125 -13.46875 C 9.101562 -13.15625 9.085938 -12.738281 9.078125 -12.21875 C 9.066406 -11.707031 9.0625 -11.03125 9.0625 -10.1875 L 8.609375 -10.1875 C 8.566406 -10.832031 8.425781 -11.445312 8.1875 -12.03125 C 7.945312 -12.625 7.59375 -13.109375 7.125 -13.484375 C 6.664062 -13.859375 6.0625 -14.046875 5.3125 -14.046875 C 4.601562 -14.046875 4.019531 -13.832031 3.5625 -13.40625 C 3.101562 -12.976562 2.875 -12.414062 2.875 -11.71875 C 2.875 -11.113281 3.023438 -10.609375 3.328125 -10.203125 C 3.640625 -9.796875 4.050781 -9.425781 4.5625 -9.09375 C 5.082031 -8.769531 5.640625 -8.421875 6.234375 -8.046875 C 6.929688 -7.617188 7.550781 -7.191406 8.09375 -6.765625 C 8.632812 -6.347656 9.0625 -5.882812 9.375 -5.375 C 9.6875 -4.863281 9.84375 -4.25 9.84375 -3.53125 C 9.84375 -2.675781 9.648438 -1.96875 9.265625 -1.40625 C 8.878906 -0.84375 8.363281 -0.421875 7.71875 -0.140625 C 7.082031 0.140625 6.375 0.28125 5.59375 0.28125 C 4.882812 0.28125 4.320312 0.195312 3.90625 0.03125 C 3.5 -0.125 3.144531 -0.289062 2.84375 -0.46875 C 2.550781 -0.65625 2.328125 -0.75 2.171875 -0.75 C 2.035156 -0.75 1.9375 -0.671875 1.875 -0.515625 C 1.8125 -0.367188 1.757812 -0.148438 1.71875 0.140625 L 1.265625 0.140625 C 1.285156 -0.140625 1.300781 -0.46875 1.3125 -0.84375 C 1.320312 -1.226562 1.328125 -1.726562 1.328125 -2.34375 C 1.335938 -2.957031 1.34375 -3.734375 1.34375 -4.671875 L 1.8125 -4.671875 C 1.863281 -3.867188 2.007812 -3.117188 2.25 -2.421875 C 2.5 -1.734375 2.878906 -1.175781 3.390625 -0.75 C 3.910156 -0.332031 4.597656 -0.125 5.453125 -0.125 C 5.898438 -0.125 6.316406 -0.210938 6.703125 -0.390625 C 7.097656 -0.566406 7.421875 -0.851562 7.671875 -1.25 C 7.929688 -1.644531 8.0625 -2.15625 8.0625 -2.78125 C 8.0625 -3.332031 7.929688 -3.8125 7.671875 -4.21875 C 7.410156 -4.625 7.046875 -5.003906 6.578125 -5.359375 C 6.109375 -5.710938 5.5625 -6.078125 4.9375 -6.453125 C 4.3125 -6.847656 3.722656 -7.242188 3.171875 -7.640625 C 2.617188 -8.046875 2.175781 -8.507812 1.84375 -9.03125 C 1.519531 -9.5625 1.359375 -10.203125 1.359375 -10.953125 C 1.359375 -11.742188 1.535156 -12.394531 1.890625 -12.90625 C 2.242188 -13.425781 2.707031 -13.804688 3.28125 -14.046875 C 3.863281 -14.296875 4.484375 -14.421875 5.140625 -14.421875 Z M 5.140625 -14.421875 "/></g></g></g><g fill="#ffffff" fill-opacity="1"><g transform="translate(146.475215, 21.836167)"><g><path d="M 5.953125 -14.203125 L 5.953125 -13.796875 C 5.503906 -13.785156 5.160156 -13.734375 4.921875 -13.640625 C 4.691406 -13.554688 4.535156 -13.394531 4.453125 -13.15625 C 4.367188 -12.925781 4.328125 -12.566406 4.328125 -12.078125 L 4.328125 -2.125 C 4.328125 -1.644531 4.367188 -1.285156 4.453125 -1.046875 C 4.535156 -0.804688 4.691406 -0.644531 4.921875 -0.5625 C 5.160156 -0.476562 5.503906 -0.425781 5.953125 -0.40625 L 5.953125 0 C 5.648438 -0.03125 5.265625 -0.046875 4.796875 -0.046875 C 4.335938 -0.0546875 3.875 -0.0625 3.40625 -0.0625 C 2.882812 -0.0625 2.394531 -0.0546875 1.9375 -0.046875 C 1.488281 -0.046875 1.125 -0.03125 0.84375 0 L 0.84375 -0.40625 C 1.300781 -0.425781 1.644531 -0.476562 1.875 -0.5625 C 2.113281 -0.644531 2.269531 -0.804688 2.34375 -1.046875 C 2.425781 -1.285156 2.46875 -1.644531 2.46875 -2.125 L 2.46875 -12.078125 C 2.46875 -12.566406 2.425781 -12.925781 2.34375 -13.15625 C 2.269531 -13.394531 2.113281 -13.554688 1.875 -13.640625 C 1.644531 -13.734375 1.300781 -13.785156 0.84375 -13.796875 L 0.84375 -14.203125 C 1.125 -14.191406 1.488281 -14.175781 1.9375 -14.15625 C 2.394531 -14.144531 2.882812 -14.140625 3.40625 -14.140625 C 3.875 -14.140625 4.335938 -14.144531 4.796875 -14.15625 C 5.265625 -14.175781 5.648438 -14.191406 5.953125 -14.203125 Z M 5.953125 -14.203125 "/></g></g></g><g fill="#ffffff" fill-opacity="1"><g transform="translate(153.27614, 21.836167)"><g><path d="M 7.4375 -14.484375 C 8.707031 -14.484375 9.820312 -14.195312 10.78125 -13.625 C 11.738281 -13.050781 12.476562 -12.222656 13 -11.140625 C 13.53125 -10.066406 13.796875 -8.757812 13.796875 -7.21875 C 13.796875 -5.71875 13.523438 -4.40625 12.984375 -3.28125 C 12.441406 -2.164062 11.6875 -1.289062 10.71875 -0.65625 C 9.757812 -0.03125 8.660156 0.28125 7.421875 0.28125 C 6.148438 0.28125 5.035156 -0.00390625 4.078125 -0.578125 C 3.117188 -1.148438 2.375 -1.976562 1.84375 -3.0625 C 1.320312 -4.144531 1.0625 -5.453125 1.0625 -6.984375 C 1.0625 -8.484375 1.332031 -9.789062 1.875 -10.90625 C 2.425781 -12.03125 3.179688 -12.90625 4.140625 -13.53125 C 5.097656 -14.164062 6.195312 -14.484375 7.4375 -14.484375 Z M 7.359375 -14.125 C 6.492188 -14.125 5.738281 -13.820312 5.09375 -13.21875 C 4.457031 -12.613281 3.957031 -11.785156 3.59375 -10.734375 C 3.238281 -9.679688 3.0625 -8.457031 3.0625 -7.0625 C 3.0625 -5.644531 3.257812 -4.410156 3.65625 -3.359375 C 4.050781 -2.304688 4.585938 -1.492188 5.265625 -0.921875 C 5.941406 -0.359375 6.6875 -0.078125 7.5 -0.078125 C 8.375 -0.078125 9.128906 -0.378906 9.765625 -0.984375 C 10.410156 -1.585938 10.910156 -2.421875 11.265625 -3.484375 C 11.617188 -4.546875 11.796875 -5.765625 11.796875 -7.140625 C 11.796875 -8.566406 11.597656 -9.800781 11.203125 -10.84375 C 10.804688 -11.894531 10.273438 -12.703125 9.609375 -13.265625 C 8.941406 -13.835938 8.191406 -14.125 7.359375 -14.125 Z M 7.359375 -14.125 "/></g></g></g><g clip-path="url(#d8a81b85e0)"><g fill="#ffffff" fill-opacity="1"><g transform="translate(168.141871, 21.836167)"><g><path d="M 13.4375 -14.203125 L 13.4375 -13.796875 C 12.988281 -13.785156 12.644531 -13.71875 12.40625 -13.59375 C 12.175781 -13.476562 12.019531 -13.285156 11.9375 -13.015625 C 11.851562 -12.753906 11.8125 -12.375 11.8125 -11.875 L 11.8125 0.09375 C 11.738281 0.09375 11.660156 0.09375 11.578125 0.09375 C 11.503906 0.09375 11.429688 0.09375 11.359375 0.09375 L 2.921875 -12.921875 L 2.921875 -2.328125 C 2.921875 -1.847656 2.960938 -1.46875 3.046875 -1.1875 C 3.140625 -0.914062 3.316406 -0.722656 3.578125 -0.609375 C 3.835938 -0.492188 4.226562 -0.425781 4.75 -0.40625 L 4.75 0 C 4.507812 -0.03125 4.195312 -0.046875 3.8125 -0.046875 C 3.425781 -0.0546875 3.054688 -0.0625 2.703125 -0.0625 C 2.367188 -0.0625 2.03125 -0.0546875 1.6875 -0.046875 C 1.351562 -0.046875 1.070312 -0.03125 0.84375 0 L 0.84375 -0.40625 C 1.300781 -0.425781 1.644531 -0.492188 1.875 -0.609375 C 2.113281 -0.722656 2.269531 -0.914062 2.34375 -1.1875 C 2.425781 -1.46875 2.46875 -1.847656 2.46875 -2.328125 L 2.46875 -12.078125 C 2.46875 -12.566406 2.425781 -12.925781 2.34375 -13.15625 C 2.269531 -13.394531 2.113281 -13.554688 1.875 -13.640625 C 1.644531 -13.734375 1.300781 -13.785156 0.84375 -13.796875 L 0.84375 -14.203125 C 1.070312 -14.191406 1.351562 -14.175781 1.6875 -14.15625 C 2.03125 -14.144531 2.367188 -14.140625 2.703125 -14.140625 C 3.003906 -14.140625 3.285156 -14.144531 3.546875 -14.15625 C 3.816406 -14.175781 4.054688 -14.191406 4.265625 -14.203125 L 11.359375 -3.296875 L 11.359375 -11.875 C 11.359375 -12.375 11.3125 -12.753906 11.21875 -13.015625 C 11.132812 -13.285156 10.960938 -13.476562 10.703125 -13.59375 C 10.441406 -13.71875 10.050781 -13.785156 9.53125 -13.796875 L 9.53125 -14.203125 C 9.769531 -14.191406 10.085938 -14.175781 10.484375 -14.15625 C 10.878906 -14.144531 11.242188 -14.140625 11.578125 -14.140625 C 11.921875 -14.140625 12.265625 -14.144531 12.609375 -14.15625 C 12.953125 -14.175781 13.226562 -14.191406 13.4375 -14.203125 Z M 13.4375 -14.203125 "/></g></g></g></g><g transform="matrix(1, 0, 0, 1, 3, 2)"><g clip-path="url(#89441173d8)"><g clip-path="url(#761eaacad6)"><path fill="#ff3131" d="M 3.207031 10.472656 C 2.890625 9.421875 2.648438 8.328125 2.488281 7.214844 C 3.257812 7.101562 4.144531 6.859375 5.136719 6.488281 C 6.210938 6.085938 7.425781 5.53125 8.742188 4.835938 C 10.3125 4.011719 11.671875 3.175781 12.324219 2.761719 C 12.324219 2.765625 12.328125 2.765625 12.328125 2.765625 C 12.328125 2.765625 12.328125 2.765625 12.332031 2.761719 C 12.984375 3.175781 14.34375 4.011719 15.914062 4.835938 C 17.230469 5.53125 18.445312 6.085938 19.519531 6.488281 C 20.511719 6.859375 21.398438 7.101562 22.167969 7.214844 C 22.003906 8.328125 21.761719 9.421875 21.449219 10.472656 C 21.109375 11.601562 20.675781 12.710938 20.160156 13.765625 C 23.113281 10.566406 23.953125 5.777344 23.953125 5.777344 L 23.074219 5.765625 C 21.679688 5.75 19.472656 4.96875 16.691406 3.507812 C 14.535156 2.375 12.804688 1.230469 12.785156 1.21875 L 12.332031 0.917969 L 12.324219 0.917969 L 11.867188 1.21875 C 11.851562 1.230469 10.117188 2.375 7.964844 3.507812 C 5.183594 4.96875 2.976562 5.75 1.582031 5.765625 L 0.703125 5.777344 C 0.703125 5.777344 1.542969 10.566406 4.496094 13.765625 C 3.980469 12.710938 3.546875 11.601562 3.207031 10.472656 " fill-opacity="1" fill-rule="nonzero"/></g><g clip-path="url(#940f177843)"><path fill="#ff3131" d="M 12.332031 22.695312 C 12.328125 22.695312 12.328125 22.695312 12.328125 22.695312 C 12.328125 22.695312 12.324219 22.695312 12.324219 22.695312 C 7.289062 19.46875 2.988281 12.988281 2.164062 11.75 C 2.445312 12.550781 2.765625 13.339844 3.121094 14.101562 C 4.097656 16.199219 5.359375 18.15625 6.867188 19.914062 C 8.207031 21.480469 9.503906 22.601562 10.351562 23.261719 C 11.289062 23.992188 11.90625 24.347656 11.933594 24.363281 L 12.324219 24.585938 L 12.328125 24.582031 L 12.332031 24.585938 L 12.722656 24.363281 C 12.75 24.347656 13.367188 23.992188 14.300781 23.261719 C 15.152344 22.601562 16.449219 21.480469 17.789062 19.914062 C 19.296875 18.15625 20.558594 16.199219 21.535156 14.101562 C 21.890625 13.339844 22.210938 12.550781 22.492188 11.75 C 21.667969 12.988281 17.367188 19.46875 12.332031 22.695312 " fill-opacity="1" fill-rule="nonzero"/></g><g clip-path="url(#8625d8a4cf)"><path fill="#ff3131" d="M 9.445312 9.566406 C 9.394531 9.542969 9.347656 9.515625 9.300781 9.492188 C 9.4375 8.847656 9.605469 8.050781 9.746094 7.351562 C 9.761719 7.277344 9.777344 7.203125 9.796875 7.132812 C 9.914062 6.675781 10.074219 6.367188 10.25 6.183594 C 10.464844 5.960938 10.703125 5.929688 10.902344 6.050781 C 10.984375 6.101562 11.058594 6.179688 11.125 6.28125 C 11.171875 6.351562 11.230469 6.417969 11.292969 6.480469 C 11.40625 6.589844 11.539062 6.671875 11.675781 6.734375 C 12.023438 6.882812 12.421875 6.882812 12.769531 6.726562 C 12.898438 6.664062 13.023438 6.582031 13.136719 6.480469 C 13.199219 6.417969 13.253906 6.351562 13.300781 6.28125 C 13.375 6.167969 13.460938 6.082031 13.554688 6.03125 C 13.734375 5.9375 13.9375 5.964844 14.132812 6.140625 C 14.316406 6.308594 14.488281 6.609375 14.617188 7.074219 C 14.640625 7.164062 14.660156 7.253906 14.679688 7.351562 C 14.828125 8.074219 15 8.902344 15.140625 9.554688 C 15.132812 9.558594 15.125 9.5625 15.121094 9.566406 C 14.367188 9.9375 13.363281 10.140625 12.28125 10.140625 C 11.207031 10.140625 10.199219 9.9375 9.445312 9.566406 Z M 9.445312 9.566406 " fill-opacity="1" fill-rule="nonzero"/></g><path fill="#ff3131" d="M 17.242188 11.355469 C 17.242188 12.140625 14.988281 12.78125 12.214844 12.78125 C 9.4375 12.78125 7.1875 12.140625 7.1875 11.355469 C 7.1875 10.902344 7.921875 10.5 9.074219 10.242188 C 9.085938 10.246094 9.09375 10.25 9.105469 10.257812 C 9.960938 10.679688 11.089844 10.910156 12.28125 10.910156 C 13.472656 10.910156 14.59375 10.679688 15.449219 10.261719 C 16.542969 10.523438 17.242188 10.914062 17.242188 11.355469 Z M 17.242188 11.355469 " fill-opacity="1" fill-rule="nonzero"/><g clip-path="url(#7d6852e3cb)"><path fill="#ff3131" d="M 11.707031 17.066406 C 11.652344 17.148438 11.597656 17.230469 11.542969 17.316406 C 11.429688 17.5 11.324219 17.679688 11.234375 17.851562 L 7.476562 15.953125 L 8.765625 15.414062 L 6.007812 13.855469 L 7.449219 12.292969 C 7.726562 12.460938 8.097656 12.613281 8.550781 12.742188 C 8.554688 12.742188 8.558594 12.746094 8.5625 12.746094 C 8.894531 14.527344 10.457031 16.074219 11.707031 17.066406 Z M 11.707031 17.066406 " fill-opacity="1" fill-rule="nonzero"/></g><g clip-path="url(#f789401faa)"><path fill="#ff3131" d="M 15.875 15.589844 L 17.332031 15.890625 C 17.332031 15.890625 13.363281 16.394531 10.972656 19.570312 C 10.972656 19.570312 11.730469 16.066406 15.699219 14.15625 C 15.816406 14.101562 15.890625 13.980469 15.890625 13.847656 L 15.890625 12.738281 C 16.386719 12.597656 16.78125 12.429688 17.066406 12.238281 C 17.117188 12.203125 17.167969 12.167969 17.210938 12.128906 L 18.652344 13.855469 Z M 15.875 15.589844 " fill-opacity="1" fill-rule="nonzero"/></g><path fill="#ff3131" d="M 11.871094 13.417969 C 11.824219 13.828125 11.191406 14.097656 10.457031 14.015625 C 9.722656 13.933594 9.167969 13.535156 9.210938 13.125 C 9.21875 13.054688 9.246094 12.984375 9.289062 12.921875 C 10.042969 13.066406 10.910156 13.15625 11.824219 13.175781 C 11.863281 13.253906 11.878906 13.335938 11.871094 13.417969 Z M 11.871094 13.417969 " fill-opacity="1" fill-rule="nonzero"/><path fill="#ff3131" d="M 14.199219 14.015625 C 13.464844 14.097656 12.832031 13.828125 12.789062 13.417969 C 12.777344 13.335938 12.792969 13.25 12.835938 13.167969 C 13.746094 13.136719 14.601562 13.039062 15.335938 12.878906 C 15.398438 12.953125 15.433594 13.035156 15.445312 13.125 C 15.488281 13.535156 14.933594 13.933594 14.199219 14.015625 Z M 14.199219 14.015625 " fill-opacity="1" fill-rule="nonzero"/></g></g><g transform="matrix(1, 0, 0, 1, 3, 2)"><g clip-path="url(#431d08c490)"><g clip-path="url(#637999aec1)"><path fill="#ffffff" d="M 3.207031 10.472656 C 2.890625 9.421875 2.648438 8.328125 2.488281 7.214844 C 3.257812 7.101562 4.144531 6.859375 5.136719 6.488281 C 6.210938 6.085938 7.425781 5.53125 8.742188 4.835938 C 10.3125 4.011719 11.671875 3.175781 12.324219 2.761719 C 12.324219 2.765625 12.328125 2.765625 12.328125 2.765625 C 12.328125 2.765625 12.328125 2.765625 12.332031 2.761719 C 12.984375 3.175781 14.34375 4.011719 15.914062 4.835938 C 17.230469 5.53125 18.445312 6.085938 19.519531 6.488281 C 20.511719 6.859375 21.398438 7.101562 22.167969 7.214844 C 22.003906 8.328125 21.761719 9.421875 21.449219 10.472656 C 21.109375 11.601562 20.675781 12.710938 20.160156 13.765625 C 23.113281 10.566406 23.953125 5.777344 23.953125 5.777344 L 23.074219 5.765625 C 21.679688 5.75 19.472656 4.96875 16.691406 3.507812 C 14.535156 2.375 12.804688 1.230469 12.785156 1.21875 L 12.332031 0.917969 L 12.324219 0.917969 L 11.867188 1.21875 C 11.851562 1.230469 10.117188 2.375 7.964844 3.507812 C 5.183594 4.96875 2.976562 5.75 1.582031 5.765625 L 0.703125 5.777344 C 0.703125 5.777344 1.542969 10.566406 4.496094 13.765625 C 3.980469 12.710938 3.546875 11.601562 3.207031 10.472656 " fill-opacity="1" fill-rule="nonzero"/></g><g clip-path="url(#3ec6acb564)"><path fill="#ffffff" d="M 12.332031 22.695312 C 12.328125 22.695312 12.328125 22.695312 12.328125 22.695312 C 12.328125 22.695312 12.324219 22.695312 12.324219 22.695312 C 7.289062 19.46875 2.988281 12.988281 2.164062 11.75 C 2.445312 12.550781 2.765625 13.339844 3.121094 14.101562 C 4.097656 16.199219 5.359375 18.15625 6.867188 19.914062 C 8.207031 21.480469 9.503906 22.601562 10.351562 23.261719 C 11.289062 23.992188 11.90625 24.347656 11.933594 24.363281 L 12.324219 24.585938 L 12.328125 24.582031 L 12.332031 24.585938 L 12.722656 24.363281 C 12.75 24.347656 13.367188 23.992188 14.300781 23.261719 C 15.152344 22.601562 16.449219 21.480469 17.789062 19.914062 C 19.296875 18.15625 20.558594 16.199219 21.535156 14.101562 C 21.890625 13.339844 22.210938 12.550781 22.492188 11.75 C 21.667969 12.988281 17.367188 19.46875 12.332031 22.695312 " fill-opacity="1" fill-rule="nonzero"/></g><g clip-path="url(#950f96f4f8)"><path fill="#ffffff" d="M 9.445312 9.566406 C 9.394531 9.542969 9.347656 9.515625 9.300781 9.492188 C 9.4375 8.847656 9.605469 8.050781 9.746094 7.351562 C 9.761719 7.277344 9.777344 7.203125 9.796875 7.132812 C 9.914062 6.675781 10.074219 6.367188 10.25 6.183594 C 10.464844 5.960938 10.703125 5.929688 10.902344 6.050781 C 10.984375 6.101562 11.058594 6.179688 11.125 6.28125 C 11.171875 6.351562 11.230469 6.417969 11.292969 6.480469 C 11.40625 6.589844 11.539062 6.671875 11.675781 6.734375 C 12.023438 6.882812 12.421875 6.882812 12.769531 6.726562 C 12.898438 6.664062 13.023438 6.582031 13.136719 6.480469 C 13.199219 6.417969 13.253906 6.351562 13.300781 6.28125 C 13.375 6.167969 13.460938 6.082031 13.554688 6.03125 C 13.734375 5.9375 13.9375 5.964844 14.132812 6.140625 C 14.316406 6.308594 14.488281 6.609375 14.617188 7.074219 C 14.640625 7.164062 14.660156 7.253906 14.679688 7.351562 C 14.828125 8.074219 15 8.902344 15.140625 9.554688 C 15.132812 9.558594 15.125 9.5625 15.121094 9.566406 C 14.367188 9.9375 13.363281 10.140625 12.28125 10.140625 C 11.207031 10.140625 10.199219 9.9375 9.445312 9.566406 Z M 9.445312 9.566406 " fill-opacity="1" fill-rule="nonzero"/></g><g clip-path="url(#379ee39096)"><path fill="#ffffff" d="M 17.242188 11.355469 C 17.242188 12.140625 14.988281 12.78125 12.214844 12.78125 C 9.4375 12.78125 7.1875 12.140625 7.1875 11.355469 C 7.1875 10.902344 7.921875 10.5 9.074219 10.242188 C 9.085938 10.246094 9.09375 10.25 9.105469 10.257812 C 9.960938 10.679688 11.089844 10.910156 12.28125 10.910156 C 13.472656 10.910156 14.59375 10.679688 15.449219 10.261719 C 16.542969 10.523438 17.242188 10.914062 17.242188 11.355469 Z M 17.242188 11.355469 " fill-opacity="1" fill-rule="nonzero"/></g><g clip-path="url(#c6ad542baf)"><path fill="#ffffff" d="M 15.875 15.589844 L 17.332031 15.890625 C 17.332031 15.890625 13.363281 16.394531 10.972656 19.570312 C 10.972656 19.570312 11.730469 16.066406 15.699219 14.15625 C 15.816406 14.101562 15.890625 13.980469 15.890625 13.847656 L 15.890625 12.738281 C 16.386719 12.597656 16.78125 12.429688 17.066406 12.238281 C 17.117188 12.203125 17.167969 12.167969 17.210938 12.128906 L 18.652344 13.855469 Z M 15.875 15.589844 " fill-opacity="1" fill-rule="nonzero"/></g><g clip-path="url(#67f4df49e2)"><path fill="#ffffff" d="M 14.199219 14.015625 C 13.464844 14.097656 12.832031 13.828125 12.789062 13.417969 C 12.777344 13.335938 12.792969 13.25 12.835938 13.167969 C 13.746094 13.136719 14.601562 13.039062 15.335938 12.878906 C 15.398438 12.953125 15.433594 13.035156 15.445312 13.125 C 15.488281 13.535156 14.933594 13.933594 14.199219 14.015625 Z M 14.199219 14.015625 " fill-opacity="1" fill-rule="nonzero"/></g></g></g></svg>